<svg width="1440" height="1024" viewBox="0 0 1440 1024" fill="none" xmlns="http://www.w3.org/2000/svg">
<path opacity="0.6" d="M1056.08 539.072C1055.06 541.026 1054 542.946 1052.91 544.855C1010.95 617.946 913.355 663.339 748.764 639.314C655.309 625.024 615.51 677.439 576.971 731.127C576.312 732.053 575.654 732.98 574.984 733.907C534.626 790.207 494.67 846.664 394.763 827.897C288.85 811.151 223.485 725.154 213.37 633.341C213.247 632.225 213.136 631.097 213.035 629.981C207.352 570.454 224.913 508.817 269.715 462.286C296.776 434.186 335.225 419.259 374.913 419.728C386.863 419.951 398.807 419.065 410.593 417.082C413.195 416.625 415.718 416.122 418.174 415.553C468.736 403.998 492.035 369.646 506.325 327.725C506.66 326.732 506.995 325.738 507.319 324.734C540.13 224.76 524.958 84.4387 703.337 105.081C862.961 116.848 980.105 205.356 1037.57 307.474C1038.14 308.501 1038.7 309.528 1039.26 310.555C1055.06 338.889 1066.33 369.517 1072.67 401.33C1073.02 403.116 1073.35 404.902 1073.65 406.689C1081.78 454.114 1076.45 500.21 1056.08 539.072Z" fill="#05AA9E"/>
<path d="M1073.65 406.689C1058.33 433.851 1036.71 457.809 1011.95 476.799C956.918 518.999 887.22 541.885 818.461 546.686C783.125 549.17 747.615 546.758 712.939 539.518C677.66 532.128 644.012 519.111 611.424 503.905C578.245 488.421 546.081 470.86 513.046 455.085C480.046 439.321 446.129 425.88 410.594 417.082C413.195 416.625 415.718 416.122 418.174 415.553C420.496 416.156 422.811 416.781 425.118 417.428C494.603 436.854 555.927 475.135 621.17 504.709C653.892 519.546 687.763 531.648 723.187 538.123C758.531 544.539 794.602 545.952 830.339 542.321C898.909 535.421 968.662 510.124 1021.38 464.865C1042.24 447.029 1059.63 425.488 1072.67 401.33C1073.02 403.116 1073.35 404.903 1073.65 406.689Z" fill="white"/>
<path d="M383.812 645.175C452.269 664.31 512.801 701.754 576.972 731.127C576.313 732.054 575.654 732.98 574.984 733.907C573.355 733.159 571.736 732.411 570.117 731.652C536.938 716.167 504.774 698.606 471.739 682.831C438.035 666.733 403.382 653.057 367.021 644.271C316.76 632.164 264.839 628.471 213.37 633.341C213.247 632.225 213.136 631.097 213.035 629.981C270.411 624.565 328.293 629.715 383.812 645.175Z" fill="white"/>
<path d="M998.433 162.922C995.572 163.152 992.707 162.529 990.2 161.131C987.692 159.733 985.656 157.623 984.348 155.068C983.041 152.513 982.52 149.627 982.852 146.776C983.184 143.925 984.354 141.236 986.214 139.05C988.074 136.864 990.541 135.279 993.302 134.495C996.064 133.71 998.995 133.762 1001.73 134.644C1004.46 135.526 1006.87 137.199 1008.65 139.449C1010.43 141.7 1011.5 144.429 1011.73 147.29C1012.04 151.127 1010.82 154.929 1008.32 157.861C1005.83 160.792 1002.27 162.613 998.433 162.922V162.922ZM998.254 160.696C1000.67 160.501 1002.98 159.593 1004.89 158.086C1006.79 156.578 1008.21 154.54 1008.95 152.229C1009.7 149.918 1009.74 147.437 1009.08 145.1C1008.42 142.764 1007.08 140.677 1005.23 139.103C1003.38 137.529 1001.1 136.539 998.689 136.258C996.276 135.977 993.834 136.417 991.672 137.524C989.51 138.631 987.725 140.354 986.542 142.475C985.359 144.596 984.832 147.021 985.027 149.442C985.156 151.049 985.601 152.615 986.336 154.051C987.071 155.487 988.081 156.763 989.309 157.808C990.538 158.854 991.96 159.646 993.494 160.142C995.029 160.638 996.646 160.826 998.254 160.696V160.696Z" fill="#05AA9E"/>
<path d="M1048.41 125.682C1053.34 125.682 1057.34 121.684 1057.34 116.751C1057.34 111.818 1053.34 107.82 1048.41 107.82C1043.48 107.82 1039.48 111.818 1039.48 116.751C1039.48 121.684 1043.48 125.682 1048.41 125.682Z" fill="#05AA9E"/>
<path d="M1092.31 93.383C1094.9 93.383 1097 91.2825 1097 88.6915C1097 86.1005 1094.9 84 1092.31 84C1089.72 84 1087.62 86.1005 1087.62 88.6915C1087.62 91.2825 1089.72 93.383 1092.31 93.383Z" fill="#05AA9E"/>
<path d="M930.239 448.588C928.657 450.982 926.4 452.854 923.753 453.966C921.107 455.079 918.191 455.381 915.372 454.835C912.554 454.29 909.961 452.921 907.921 450.902C905.881 448.883 904.485 446.304 903.911 443.491C903.336 440.679 903.609 437.759 904.693 435.102C905.778 432.444 907.627 430.168 910.005 428.561C912.384 426.954 915.185 426.088 918.056 426.074C920.926 426.059 923.736 426.896 926.131 428.478V428.478C929.339 430.603 931.573 433.913 932.344 437.683C933.114 441.453 932.357 445.375 930.239 448.588V448.588ZM907.885 433.817C906.546 435.843 905.838 438.221 905.85 440.65C905.863 443.079 906.595 445.449 907.955 447.462C909.315 449.474 911.241 451.039 913.489 451.956C915.738 452.874 918.209 453.105 920.588 452.619C922.968 452.133 925.15 450.952 926.859 449.225C928.567 447.499 929.725 445.305 930.187 442.92C930.649 440.536 930.393 438.068 929.452 435.829C928.511 433.59 926.927 431.68 924.9 430.341V430.341C922.182 428.549 918.864 427.909 915.674 428.56C912.484 429.212 909.683 431.102 907.885 433.817V433.817Z" fill="#05AA9E"/>
<path d="M947.626 501.963C952.559 501.963 956.557 497.965 956.557 493.032C956.557 488.1 952.559 484.101 947.626 484.101C942.694 484.101 938.695 488.1 938.695 493.032C938.695 497.965 942.694 501.963 947.626 501.963Z" fill="#05AA9E"/>
<path d="M972.539 543.483C975.13 543.483 977.23 541.383 977.23 538.792C977.23 536.201 975.13 534.1 972.539 534.1C969.948 534.1 967.847 536.201 967.847 538.792C967.847 541.383 969.948 543.483 972.539 543.483Z" fill="#05AA9E"/>
<path d="M569.867 204.836C568.59 202.265 568.104 199.373 568.47 196.526C568.836 193.679 570.038 191.005 571.924 188.841C573.81 186.677 576.295 185.121 579.065 184.37C581.836 183.618 584.767 183.705 587.488 184.62C590.208 185.534 592.597 187.235 594.352 189.507C596.106 191.779 597.147 194.52 597.344 197.384C597.54 200.247 596.883 203.105 595.455 205.595C594.028 208.085 591.894 210.096 589.323 211.374V211.374C585.875 213.082 581.891 213.354 578.243 212.128C574.596 210.902 571.584 208.28 569.867 204.836V204.836ZM593.862 192.912C592.781 190.737 591.079 188.931 588.972 187.723C586.865 186.515 584.447 185.959 582.024 186.125C579.601 186.291 577.281 187.172 575.359 188.657C573.436 190.141 571.997 192.163 571.224 194.465C570.45 196.767 570.376 199.247 571.012 201.591C571.648 203.936 572.964 206.039 574.795 207.634C576.626 209.23 578.889 210.247 581.298 210.557C583.707 210.867 586.154 210.455 588.329 209.374C591.243 207.922 593.462 205.373 594.5 202.287C595.537 199.201 595.307 195.829 593.862 192.912Z" fill="#05AA9E"/>
<path d="M522.699 206.503C527.632 206.503 531.63 202.504 531.63 197.571C531.63 192.639 527.632 188.64 522.699 188.64C517.766 188.64 513.768 192.639 513.768 197.571C513.768 202.504 517.766 206.503 522.699 206.503Z" fill="#05AA9E"/>
<path d="M470.617 200.849C473.208 200.849 475.309 198.748 475.309 196.157C475.309 193.566 473.208 191.466 470.617 191.466C468.026 191.466 465.926 193.566 465.926 196.157C465.926 198.748 468.026 200.849 470.617 200.849Z" fill="#05AA9E"/>
<path d="M1051.62 942.506H670.619C670.354 942.506 670.1 942.4 669.912 942.213C669.725 942.025 669.619 941.771 669.619 941.506C669.619 941.241 669.725 940.986 669.912 940.799C670.1 940.611 670.354 940.506 670.619 940.506H1051.62C1051.88 940.506 1052.14 940.611 1052.33 940.799C1052.51 940.986 1052.62 941.241 1052.62 941.506C1052.62 941.771 1052.51 942.025 1052.33 942.213C1052.14 942.4 1051.88 942.506 1051.62 942.506Z" fill="#CACACA"/>
<path d="M1242.3 500.06L1239.49 500.757L1250.4 426.788C1251.26 421.833 1250.91 416.744 1249.38 411.954C1248.08 408.046 1245.58 404.647 1242.24 402.238C1238.76 399.846 1234.67 398.489 1230.45 398.321C1225.3 398.117 1220.17 398.939 1215.35 400.738V400.738L1088.76 445.218C1084.34 446.838 1080.21 449.121 1076.48 451.989C1072.43 455.072 1068.74 458.601 1065.48 462.509C1062.11 466.498 1059.18 470.831 1056.73 475.435C1054.33 479.894 1052.5 484.638 1051.28 489.554V489.554L958.105 879.177C956.548 885.587 955.813 892.168 955.918 898.763C955.986 904.621 956.936 910.435 958.737 916.009C960.262 920.858 962.801 925.326 966.184 929.119C969.283 932.564 973.369 934.971 977.886 936.011V936.011L1120.63 967.568C1126.97 968.947 1133.56 968.587 1139.71 966.527C1146.28 964.287 1152.29 960.643 1157.31 955.847C1162.95 950.503 1167.6 944.208 1171.06 937.249C1174.9 929.6 1177.48 921.382 1178.7 912.912V912.912L1231.22 556.822L1234.08 556.259L1242.3 500.06Z" fill="#2F2E41"/>
<path d="M1231.91 497.223L1229.1 497.92L1240.01 423.951C1240.87 418.996 1240.52 413.907 1238.99 409.118C1237.69 405.21 1235.19 401.81 1231.85 399.401C1228.37 397.01 1224.28 395.652 1220.06 395.485C1214.91 395.281 1209.78 396.102 1204.96 397.901L1078.37 442.381C1073.95 444.001 1069.82 446.284 1066.09 449.152C1062.04 452.236 1058.35 455.764 1055.09 459.672C1051.72 463.661 1048.79 467.994 1046.34 472.598C1043.94 477.057 1042.11 481.801 1040.89 486.717V486.717L947.715 876.341C946.159 882.75 945.424 889.331 945.529 895.926C945.596 901.784 946.547 907.598 948.347 913.173C949.873 918.021 952.411 922.489 955.795 926.282C958.894 929.728 962.98 932.134 967.496 933.174V933.174L1110.24 964.731C1116.58 966.11 1123.17 965.75 1129.32 963.69C1135.89 961.45 1141.9 957.806 1146.92 953.011C1152.56 947.667 1157.21 941.371 1160.67 934.413C1164.51 926.763 1167.09 918.545 1168.32 910.075V910.075L1220.83 553.985L1223.69 553.423L1231.91 497.223Z" fill="#3F3D56"/>
<path d="M1204.88 407.399L1186.25 413.772C1186.65 415.401 1186.68 417.099 1186.33 418.74C1185.95 420.657 1185.29 422.508 1184.36 424.233C1182.3 428.147 1179.32 431.51 1175.69 434.042C1175.25 434.342 1174.82 434.622 1174.38 434.883C1173.95 435.145 1173.51 435.387 1173.07 435.61C1172.63 435.833 1172.19 436.035 1171.75 436.217C1171.31 436.4 1170.88 436.561 1170.45 436.701L1097.48 460.378C1096.13 460.859 1094.68 461.007 1093.26 460.812C1092.12 460.641 1091.07 460.094 1090.27 459.257C1089.46 458.352 1088.93 457.23 1088.75 456.028C1088.52 454.496 1088.58 452.933 1088.95 451.427C1089.04 451.022 1089.14 450.612 1089.27 450.197C1089.39 449.782 1089.53 449.365 1089.69 448.947C1089.84 448.527 1090.01 448.107 1090.2 447.686C1090.39 447.266 1090.59 446.844 1090.81 446.422L1077.02 451.14C1073.7 452.328 1070.59 454.022 1067.79 456.161C1064.73 458.47 1061.95 461.119 1059.48 464.058C1056.94 467.063 1054.73 470.33 1052.88 473.804C1051.07 477.164 1049.7 480.739 1048.8 484.444L956.245 877.29C955.088 882.119 954.557 887.078 954.667 892.043C954.745 896.428 955.493 900.775 956.884 904.934C958.059 908.532 959.994 911.835 962.559 914.618C964.907 917.14 967.977 918.875 971.348 919.585V919.585L1114.83 948.694C1119.57 949.635 1124.46 949.296 1129.02 947.711C1133.87 946.001 1138.3 943.27 1142 939.704C1146.15 935.744 1149.58 931.095 1152.14 925.962C1154.97 920.321 1156.89 914.265 1157.82 908.021V908.021L1230.83 427.116C1231.48 423.434 1231.25 419.65 1230.15 416.076C1229.21 413.152 1227.39 410.593 1224.92 408.756C1222.36 406.932 1219.32 405.875 1216.18 405.71C1212.34 405.508 1208.49 406.083 1204.88 407.399V407.399Z" fill="#E8E3E3"/>
<path d="M777.822 892.249L762.738 906.135L774.726 886.021C765.281 868.894 749.835 854.092 749.835 854.092C749.835 854.092 717.789 884.795 717.789 908.929C717.789 933.063 732.136 941.49 749.835 941.49C767.533 941.49 781.88 933.063 781.88 908.929C781.88 903.557 780.291 897.86 777.822 892.249Z" fill="#F2F2F2"/>
<path d="M758.859 906.887V908.077C758.788 921.905 756.456 932.693 751.88 940.29C751.816 940.402 751.745 940.508 751.68 940.62L751.168 940.308L750.679 940.002C755.755 931.798 757.552 920.203 757.616 908.142C757.622 907.753 757.628 907.358 757.622 906.964C757.605 901.858 757.293 896.693 756.792 891.675C756.757 891.287 756.715 890.892 756.674 890.498C755.979 883.878 754.978 877.553 753.953 872.059C753.883 871.67 753.806 871.281 753.73 870.899C751.957 861.605 750.149 854.874 749.737 853.384C749.69 853.202 749.66 853.102 749.654 853.078L750.214 852.919L750.22 852.913L750.785 852.754C750.791 852.778 750.891 853.113 751.056 853.738C751.686 856.07 753.323 862.401 754.931 870.751C755.002 871.128 755.078 871.517 755.149 871.906C755.985 876.364 756.804 881.346 757.452 886.576C757.616 887.889 757.764 889.184 757.893 890.462C757.94 890.857 757.982 891.251 758.017 891.64C758.559 897.064 758.839 902.146 758.859 906.887Z" fill="white"/>
<path d="M754.931 870.751C754.536 870.804 754.136 870.857 753.729 870.899C752.626 871.012 751.517 871.069 750.408 871.069C745.68 871.076 741.011 870.021 736.745 867.983C736.498 868.296 736.25 868.608 735.997 868.926C740.485 871.116 745.414 872.252 750.408 872.247C751.592 872.247 752.775 872.184 753.953 872.059C754.354 872.017 754.754 871.965 755.149 871.906C758.406 871.438 761.573 870.479 764.542 869.061C764.289 868.737 764.041 868.419 763.8 868.107C760.99 869.42 758.001 870.311 754.931 870.751V870.751Z" fill="white"/>
<path d="M757.894 890.462C757.487 890.486 757.081 890.498 756.674 890.498C756.551 890.504 756.421 890.504 756.298 890.504C751.175 890.504 746.128 889.265 741.587 886.893C737.047 884.521 733.147 881.087 730.22 876.882C729.985 877.229 729.749 877.577 729.52 877.93C732.57 882.185 736.59 885.651 741.246 888.042C745.903 890.434 751.063 891.681 756.298 891.681C756.462 891.681 756.627 891.681 756.792 891.675C757.204 891.67 757.611 891.658 758.017 891.64C764.305 891.318 770.367 889.192 775.479 885.515C775.29 885.168 775.102 884.82 774.907 884.473C769.94 888.082 764.027 890.164 757.894 890.462V890.462Z" fill="white"/>
<path d="M758.859 906.887C758.447 906.923 758.034 906.946 757.622 906.964C757.18 906.981 756.739 906.993 756.297 906.993C749.413 906.985 742.717 904.748 737.212 900.616C731.706 896.484 727.687 890.68 725.756 884.073C725.491 884.55 725.226 885.021 724.973 885.498C727.148 892.09 731.346 897.828 736.969 901.899C742.592 905.969 749.355 908.164 756.297 908.171C756.739 908.171 757.18 908.165 757.616 908.142C758.034 908.13 758.447 908.106 758.859 908.077C767.186 907.425 774.954 903.634 780.59 897.47C780.466 897.035 780.325 896.605 780.183 896.169C774.739 902.379 767.09 906.223 758.859 906.887V906.887Z" fill="white"/>
<path d="M1118.99 531.787L602.526 416L541.18 689.628L1057.64 805.414L1118.99 531.787Z" fill="#F0F0F0"/>
<path d="M1107.5 583.005L1108.1 580.322L1007.57 557.783L1018.45 509.247L1015.77 508.646L1004.89 557.181L904.352 534.642L915.233 486.107L912.55 485.505L901.668 534.04L801.134 511.501L812.015 462.966L809.332 462.364L798.451 510.9L697.916 488.361L708.797 439.825L706.114 439.224L695.233 487.759L591.644 464.535L591.043 467.219L694.631 490.442L682.61 544.061L579.022 520.838L578.42 523.521L682.008 546.745L669.988 600.364L566.399 577.14L565.798 579.823L669.386 603.047L657.367 656.656L553.779 633.433L553.177 636.116L656.766 659.34L644.769 712.851L647.452 713.453L659.449 659.941L759.984 682.481L747.987 735.992L750.67 736.594L762.667 683.082L863.201 705.621L851.204 759.133L853.888 759.734L865.885 706.223L966.419 728.762L954.422 782.274L957.106 782.875L969.103 729.363L1069.64 751.903L1070.24 749.219L969.704 726.68L981.723 673.071L1082.26 695.61L1082.86 692.927L982.325 670.387L994.346 616.769L1094.88 639.308L1095.48 636.624L994.947 614.085L1006.97 560.466L1107.5 583.005ZM760.585 679.797L660.05 657.258L672.069 603.649L772.604 626.188L760.585 679.797ZM773.206 623.504L672.671 600.965L684.692 547.346L785.227 569.886L773.206 623.504ZM785.828 567.202L685.293 544.663L697.314 491.044L797.849 513.583L785.828 567.202ZM863.803 702.938L763.269 680.399L775.287 626.79L875.822 649.329L863.803 702.938ZM876.423 646.645L775.889 624.106L787.91 570.487L888.444 593.026L876.423 646.645ZM889.046 590.343L788.512 567.804L800.533 514.185L901.067 536.724L889.046 590.343ZM967.021 726.079L866.486 703.539L878.505 649.93L979.04 672.469L967.021 726.079ZM979.641 669.786L879.107 647.247L891.128 593.628L991.662 616.167L979.641 669.786ZM992.264 613.484L891.729 590.944L903.75 537.325L1004.28 559.865L992.264 613.484Z" fill="white"/>
<path d="M736.394 512.939H700.984V547.22H736.394V512.939Z" fill="#CACACA"/>
<path d="M1062.39 623.939H1026.98V658.22H1062.39V623.939Z" fill="#CACACA"/>
<path d="M747.394 680.939H711.984V715.22H747.394V680.939Z" fill="#CACACA"/>
<path d="M757.858 506.579H722.449V540.86H757.858V506.579Z" fill="#05AA9E"/>
<path d="M924.31 649.076L966.329 611.639L978.725 617.781L928.329 670.639L924.31 649.076Z" fill="#FFB6B6"/>
<path d="M971.859 624.506C977.382 624.506 981.859 620.029 981.859 614.506C981.859 608.983 977.382 604.506 971.859 604.506C966.337 604.506 961.859 608.983 961.859 614.506C961.859 620.029 966.337 624.506 971.859 624.506Z" fill="#FFB6B6"/>
<path d="M884.979 930.856H875.036L870.306 892.506L884.98 892.507L884.979 930.856Z" fill="#FFB6B6"/>
<path d="M887.514 940.494L855.455 940.492V940.087C855.455 936.778 856.77 933.604 859.11 931.264C861.45 928.924 864.624 927.609 867.933 927.609H867.934L887.514 927.61L887.514 940.494Z" fill="#2F2E41"/>
<path d="M848.979 930.856H839.036L834.306 892.506L848.98 892.507L848.979 930.856Z" fill="#FFB6B6"/>
<path d="M851.514 940.494L819.455 940.492V940.087C819.455 936.778 820.77 933.604 823.11 931.264C825.45 928.924 828.624 927.609 831.933 927.609H831.934L851.514 927.61L851.514 940.494Z" fill="#2F2E41"/>
<path d="M893.329 711.639C893.329 711.639 918.329 709.639 910.329 753.639C902.329 797.639 885.758 918 885.758 918L870.735 920.065L861.859 759.506L855.144 920.065L836.037 918L817.329 745.639C817.329 745.639 811.322 731.781 817.326 722.21C823.329 712.639 893.329 711.639 893.329 711.639Z" fill="#2F2E41"/>
<path d="M877.329 602.639L884.27 598.92C884.27 598.92 901.371 597.462 908.35 617.55L926.859 645.506L956.859 619.506L969.859 628.506L932.05 673.631L916.329 675.639L882.329 631.639L877.329 602.639Z" fill="#3F3D56"/>
<path d="M852.143 521.506C823.625 521.506 815.643 552.833 815.643 570.506C815.643 588.179 831.984 585.506 852.143 585.506C860.795 585.506 868.739 585.994 874.995 585.159L878.003 577.812L880.425 583.9C885.56 582.013 888.643 578.178 888.643 570.506C888.643 552.833 881.643 521.506 852.143 521.506Z" fill="#2F2E41"/>
<path d="M852.02 585.476C865.585 585.476 876.581 574.48 876.581 560.915C876.581 547.351 865.585 536.354 852.02 536.354C838.455 536.354 827.459 547.351 827.459 560.915C827.459 574.48 838.455 585.476 852.02 585.476Z" fill="#FFB6B6"/>
<path d="M823.643 558.506H833.357L837.643 546.506L838.5 558.506H843.143L845.643 551.506L846.143 558.506H880.643C880.643 551.61 877.903 544.997 873.027 540.121C868.151 535.245 861.538 532.506 854.643 532.506H849.643C842.747 532.506 836.134 535.245 831.258 540.121C826.382 544.997 823.643 551.61 823.643 558.506Z" fill="#2F2E41"/>
<path d="M987.858 576.579H952.449V610.86H987.858V576.579Z" fill="#05AA9E"/>
<path d="M901.1 702.591C897.329 702.639 885.97 635.241 885.97 635.241L884.27 598.921L871.859 598.503V597.687C871.859 596.048 871.208 594.475 870.048 593.316C868.889 592.157 867.317 591.506 865.678 591.506H842.04C840.47 591.507 838.959 592.105 837.814 593.181C836.67 594.256 835.978 595.727 835.879 597.294L826.146 596.967L809.29 650.521C809.29 650.521 824.822 700.281 817.326 722.21C817.326 722.21 890.364 728.482 904.346 714.56C904.346 714.561 904.871 702.542 901.1 702.591Z" fill="#3F3D56"/>
<path d="M830.329 603.639L826.146 596.967C826.146 596.967 812.536 593.602 806.933 602.62C801.33 611.639 784.859 660.506 784.859 660.506L801.859 666.506L821.151 639.46L830.329 603.639Z" fill="#3F3D56"/>
<path d="M872.858 638.579H837.449V672.86H872.858V638.579Z" fill="#05AA9E"/>
<path d="M810.283 650.969L797.964 649.666C797.186 651.326 796.796 653.14 796.823 654.973C796.85 656.805 797.293 658.608 798.119 660.244C798.946 661.88 800.133 663.306 801.592 664.416C803.051 665.525 804.744 666.288 806.541 666.647L855.284 676.375L850.2 660.716L810.283 650.969Z" fill="#FFB6B6"/>
<path d="M855.432 676.555C860.954 676.555 865.432 672.078 865.432 666.555C865.432 661.032 860.954 656.555 855.432 656.555C849.909 656.555 845.432 661.032 845.432 666.555C845.432 672.078 849.909 676.555 855.432 676.555Z" fill="#FFB6B6"/>
<path d="M842.947 676.859L805.813 668.374C803.122 667.752 800.637 666.445 798.599 664.581C796.562 662.717 795.039 660.358 794.18 657.733L792.68 653.105L802.317 645.522L846.47 657.862L842.947 676.859Z" fill="#3F3D56"/>
<path d="M378.512 931.845H390.659L396.438 884.99L378.51 884.991L378.512 931.845Z" fill="#FFB6B6"/>
<path d="M414.087 943.123L375.91 943.125L375.91 928.374L401.136 928.373C404.571 928.373 407.865 929.737 410.294 932.166C412.723 934.595 414.087 937.889 414.087 941.323L414.087 943.123V943.123Z" fill="#2F2E41"/>
<path d="M257.047 916.102L267.692 921.954L295.33 883.681L279.62 875.044L257.047 916.102Z" fill="#FFB6B6"/>
<path d="M282.786 943.124L249.332 924.732L256.438 911.806L278.544 923.96C281.553 925.614 283.783 928.397 284.741 931.695C285.699 934.994 285.308 938.538 283.653 941.548L282.786 943.124V943.124Z" fill="#2F2E41"/>
<path d="M377.946 905.839C376.863 905.838 375.818 905.443 375.005 904.728C374.193 904.013 373.668 903.027 373.528 901.954L358.337 784.89C358.27 784.372 358.041 783.889 357.682 783.509C357.324 783.129 356.855 782.872 356.342 782.775C355.829 782.677 355.299 782.745 354.826 782.967C354.354 783.189 353.963 783.555 353.711 784.012L290.399 898.879C289.877 899.816 289.035 900.536 288.027 900.906C287.019 901.275 285.912 901.271 284.907 900.894L271.107 895.636C270.552 895.425 270.045 895.105 269.615 894.694C269.186 894.284 268.842 893.792 268.606 893.248C268.369 892.703 268.243 892.116 268.236 891.522C268.229 890.928 268.341 890.339 268.565 889.789L312.423 782.05C312.534 781.776 312.609 781.489 312.647 781.196C318.587 735.219 333.701 711.838 338.192 705.767C338.52 705.321 338.736 704.802 338.821 704.255C338.907 703.708 338.859 703.149 338.683 702.624L338.066 700.772C337.819 700.036 337.769 699.25 337.919 698.489C338.07 697.729 338.416 697.021 338.924 696.435C355.105 678.004 383.309 688.061 383.592 688.165L383.733 688.217L383.821 688.338C415.446 731.709 403.753 872.575 401.088 900.373C400.989 901.418 400.523 902.394 399.773 903.128C399.024 903.863 398.039 904.308 396.992 904.386L378.292 905.826C378.176 905.835 378.06 905.839 377.946 905.839Z" fill="#2F2E41"/>
<path d="M369.371 580.561C384.301 580.561 396.404 568.458 396.404 553.527C396.404 538.597 384.301 526.494 369.371 526.494C354.441 526.494 342.337 538.597 342.337 553.527C342.337 568.458 354.441 580.561 369.371 580.561Z" fill="#FFB8B8"/>
<path d="M327.577 725.547L407.125 732.787C400.189 708.672 393.835 684.641 399.015 660.698C405.592 639.322 406.203 627.48 388.853 617.413L377.138 591.281L355.937 590.51L345.599 587.676C337.247 601.105 333.831 617.023 335.937 632.696C340.43 666.779 339.217 698.406 327.577 725.547Z" fill="#00BFA6"/>
<path d="M339.65 604.914L331.649 568.189C329.979 559.496 330.398 550.53 332.871 542.031C333.14 541.16 333.465 540.307 333.843 539.477C336.058 534.65 339.54 530.514 343.919 527.509C348.298 524.505 353.41 522.743 358.711 522.414C376.895 521.158 379.565 523.075 380.222 524.02C390.498 523.605 398.466 527.575 402.101 534.922C402.457 535.651 402.649 536.449 402.663 537.261C402.677 538.072 402.513 538.877 402.183 539.618C401.853 540.359 401.364 541.019 400.751 541.55C400.138 542.082 399.415 542.473 398.635 542.695C393.557 544.16 386.419 545.786 381.065 545.308C370.335 558.179 374.722 581.76 385.608 595.811L386.036 596.363L375.25 598.573L362.715 581.118C362.467 580.772 362.108 580.523 361.698 580.41C361.288 580.298 360.852 580.33 360.462 580.5C360.073 580.671 359.754 580.97 359.558 581.348C359.363 581.725 359.303 582.159 359.389 582.575L363.194 601.062L339.65 604.914Z" fill="#2F2E41"/>
<path d="M924.313 943.41H170V941.512H924.656L924.313 943.41Z" fill="#CACACA"/>
<path d="M494.169 703.802L297.422 842.933L250.274 776.261L447.022 637.13L494.169 703.802Z" fill="white"/>
<path d="M316.688 799.568C324.391 794.121 326.22 783.461 320.773 775.757C315.325 768.054 304.665 766.226 296.962 771.673C289.259 777.12 287.43 787.781 292.877 795.484C298.325 803.187 308.985 805.016 316.688 799.568Z" fill="#00BFA6"/>
<path d="M332.463 753.543C331.846 753.979 331.428 754.642 331.3 755.386C331.173 756.13 331.346 756.895 331.782 757.511C332.218 758.128 332.881 758.546 333.625 758.673C334.369 758.801 335.134 758.628 335.75 758.192L445.34 680.695C445.955 680.258 446.371 679.595 446.497 678.852C446.624 678.109 446.45 677.346 446.015 676.73C445.58 676.115 444.918 675.697 444.175 675.569C443.432 675.44 442.669 675.612 442.052 676.045L332.463 753.543Z" fill="#E6E6E6"/>
<path d="M342.325 767.49C341.708 767.925 341.29 768.587 341.161 769.331C341.032 770.075 341.204 770.839 341.638 771.456C342.073 772.073 342.734 772.492 343.478 772.622C344.221 772.751 344.985 772.58 345.603 772.147L345.613 772.14L431.835 711.167C432.452 710.731 432.87 710.068 432.998 709.323C433.125 708.579 432.952 707.815 432.516 707.198C432.3 706.893 432.026 706.633 431.71 706.434C431.394 706.234 431.041 706.099 430.673 706.036C429.929 705.908 429.164 706.081 428.548 706.517L342.325 767.49Z" fill="#E6E6E6"/>
<path d="M494.169 703.802L297.422 842.933L250.274 776.261L447.022 637.13L494.169 703.802ZM298.57 836.238L487.474 702.653L445.873 643.825L256.97 777.41L298.57 836.238Z" fill="#E6E6E6"/>
<path d="M390.275 746.922L377.481 676.98L378.382 633.727L349.547 632.825L354.953 681.486L373.598 748.962C372.05 750.843 371.102 753.144 370.876 755.569C370.649 757.995 371.154 760.432 372.326 762.567C373.498 764.703 375.284 766.437 377.451 767.548C379.619 768.659 382.07 769.095 384.488 768.799C386.905 768.503 389.179 767.49 391.015 765.889C392.851 764.289 394.166 762.175 394.789 759.82C395.412 757.465 395.315 754.978 394.51 752.679C393.706 750.38 392.231 748.374 390.275 746.922H390.275Z" fill="#FFB8B8"/>
<path d="M347.744 637.331C358.191 633.352 369.737 633.352 380.184 637.331L378.382 601.286C378.382 599.393 378.009 597.518 377.284 595.769C376.56 594.02 375.498 592.43 374.159 591.092C372.82 589.753 371.231 588.691 369.481 587.966C367.732 587.242 365.857 586.869 363.964 586.869V586.869C362.071 586.869 360.196 587.242 358.447 587.966C356.697 588.691 355.108 589.753 353.769 591.092C352.43 592.43 351.368 594.02 350.644 595.769C349.919 597.518 349.546 599.393 349.546 601.286L347.744 637.331Z" fill="#00BFA6"/>
</svg>
