<svg width="1440" height="1024" viewBox="0 0 1440 1024" fill="none" xmlns="http://www.w3.org/2000/svg">
<path opacity="0.1" d="M806.596 867.588C883.666 824.938 971.706 811.308 1057.75 829.588C1179.67 855.508 1332.9 845.348 1362.58 645.378C1413.27 303.858 1200.85 213.718 1200.85 213.718C1200.85 213.718 1059.59 201.888 976.056 156.848C857.406 92.8478 721.786 84.6978 602.536 138.848C526.276 173.448 463.476 221.628 452.746 287.778C422.746 472.778 472.016 574.708 379.846 635.098C287.676 695.488 366.446 861.288 437.106 855.548C507.766 849.808 667.436 786.838 729.656 859.778C751.756 885.648 779.716 882.468 806.596 867.588Z" fill="#00BFA6"/>
<path opacity="0.1" d="M1172.27 253.228H854.266V275.228H1172.27V253.228Z" fill="#00BFA6"/>
<path opacity="0.1" d="M1172.27 348.228H854.266V370.228H1172.27V348.228Z" fill="#00BFA6"/>
<path opacity="0.1" d="M1172.27 447.228H854.266V469.228H1172.27V447.228Z" fill="#00BFA6"/>
<path opacity="0.1" d="M902.266 196.228H882.266V253.228H902.266V196.228Z" fill="#00BFA6"/>
<path opacity="0.1" d="M902.266 205.228H882.266V209.228H902.266V205.228Z" fill="#00BFA6"/>
<path opacity="0.1" d="M902.266 236.228H882.266V240.228H902.266V236.228Z" fill="#00BFA6"/>
<path opacity="0.1" d="M932.266 196.228H912.266V253.228H932.266V196.228Z" fill="#00BFA6"/>
<path opacity="0.1" d="M932.266 205.228H912.266V209.228H932.266V205.228Z" fill="#00BFA6"/>
<path opacity="0.1" d="M932.266 236.228H912.266V240.228H932.266V236.228Z" fill="#00BFA6"/>
<path opacity="0.1" d="M962.266 196.228H942.266V253.228H962.266V196.228Z" fill="#00BFA6"/>
<path opacity="0.1" d="M962.266 205.228H942.266V209.228H962.266V205.228Z" fill="#00BFA6"/>
<path opacity="0.1" d="M962.266 236.228H942.266V240.228H962.266V236.228Z" fill="#00BFA6"/>
<path opacity="0.1" d="M992.266 196.228H972.266V253.228H992.266V196.228Z" fill="#00BFA6"/>
<path opacity="0.1" d="M992.266 205.228H972.266V209.228H992.266V205.228Z" fill="#00BFA6"/>
<path opacity="0.1" d="M992.266 236.228H972.266V240.228H992.266V236.228Z" fill="#00BFA6"/>
<path opacity="0.1" d="M1022.27 196.228H1002.27V253.228H1022.27V196.228Z" fill="#00BFA6"/>
<path opacity="0.1" d="M1022.27 205.228H1002.27V209.228H1022.27V205.228Z" fill="#00BFA6"/>
<path opacity="0.1" d="M1022.27 236.228H1002.27V240.228H1022.27V236.228Z" fill="#00BFA6"/>
<path opacity="0.1" d="M1052.27 196.228H1032.27V253.228H1052.27V196.228Z" fill="#00BFA6"/>
<path opacity="0.1" d="M1052.27 205.228H1032.27V209.228H1052.27V205.228Z" fill="#00BFA6"/>
<path opacity="0.1" d="M1052.27 236.228H1032.27V240.228H1052.27V236.228Z" fill="#00BFA6"/>
<path opacity="0.1" d="M1082.27 196.228H1062.27V253.228H1082.27V196.228Z" fill="#00BFA6"/>
<path opacity="0.1" d="M1082.27 205.228H1062.27V209.228H1082.27V205.228Z" fill="#00BFA6"/>
<path opacity="0.1" d="M1082.27 236.228H1062.27V240.228H1082.27V236.228Z" fill="#00BFA6"/>
<path opacity="0.1" d="M1070.43 388.727L1052.55 397.692L1078.1 448.645L1095.97 439.681L1070.43 388.727Z" fill="#00BFA6"/>
<path opacity="0.1" d="M1074.47 396.78L1056.59 405.744L1058.38 409.32L1076.26 400.355L1074.47 396.78Z" fill="#00BFA6"/>
<path opacity="0.1" d="M1088.35 424.494L1070.47 433.459L1072.27 437.034L1090.14 428.07L1088.35 424.494Z" fill="#00BFA6"/>
<path opacity="0.1" d="M902.266 292.228H882.266V349.228H902.266V292.228Z" fill="#00BFA6"/>
<path opacity="0.1" d="M902.266 301.228H882.266V305.228H902.266V301.228Z" fill="#00BFA6"/>
<path opacity="0.1" d="M902.266 332.228H882.266V336.228H902.266V332.228Z" fill="#00BFA6"/>
<path opacity="0.1" d="M932.266 292.228H912.266V349.228H932.266V292.228Z" fill="#00BFA6"/>
<path opacity="0.1" d="M932.266 301.228H912.266V305.228H932.266V301.228Z" fill="#00BFA6"/>
<path opacity="0.1" d="M932.266 332.228H912.266V336.228H932.266V332.228Z" fill="#00BFA6"/>
<path opacity="0.1" d="M962.266 292.228H942.266V349.228H962.266V292.228Z" fill="#00BFA6"/>
<path opacity="0.1" d="M962.266 301.228H942.266V305.228H962.266V301.228Z" fill="#00BFA6"/>
<path opacity="0.1" d="M962.266 332.228H942.266V336.228H962.266V332.228Z" fill="#00BFA6"/>
<path opacity="0.1" d="M1087.27 292.228H1067.27V349.228H1087.27V292.228Z" fill="#00BFA6"/>
<path opacity="0.1" d="M1087.27 301.228H1067.27V305.228H1087.27V301.228Z" fill="#00BFA6"/>
<path opacity="0.1" d="M1087.27 332.228H1067.27V336.228H1087.27V332.228Z" fill="#00BFA6"/>
<path opacity="0.1" d="M1117.27 292.228H1097.27V349.228H1117.27V292.228Z" fill="#00BFA6"/>
<path opacity="0.1" d="M1117.27 301.228H1097.27V305.228H1117.27V301.228Z" fill="#00BFA6"/>
<path opacity="0.1" d="M1117.27 332.228H1097.27V336.228H1117.27V332.228Z" fill="#00BFA6"/>
<path opacity="0.1" d="M1147.27 292.228H1127.27V349.228H1147.27V292.228Z" fill="#00BFA6"/>
<path opacity="0.1" d="M1147.27 301.228H1127.27V305.228H1147.27V301.228Z" fill="#00BFA6"/>
<path opacity="0.1" d="M1147.27 332.228H1127.27V336.228H1147.27V332.228Z" fill="#00BFA6"/>
<path opacity="0.1" d="M902.266 390.228H882.266V447.228H902.266V390.228Z" fill="#00BFA6"/>
<path opacity="0.1" d="M902.266 399.228H882.266V403.228H902.266V399.228Z" fill="#00BFA6"/>
<path opacity="0.1" d="M902.266 430.228H882.266V434.228H902.266V430.228Z" fill="#00BFA6"/>
<path opacity="0.1" d="M932.266 390.228H912.266V447.228H932.266V390.228Z" fill="#00BFA6"/>
<path opacity="0.1" d="M932.266 399.228H912.266V403.228H932.266V399.228Z" fill="#00BFA6"/>
<path opacity="0.1" d="M932.266 430.228H912.266V434.228H932.266V430.228Z" fill="#00BFA6"/>
<path opacity="0.1" d="M962.266 390.228H942.266V447.228H962.266V390.228Z" fill="#00BFA6"/>
<path opacity="0.1" d="M962.266 399.228H942.266V403.228H962.266V399.228Z" fill="#00BFA6"/>
<path opacity="0.1" d="M962.266 430.228H942.266V434.228H962.266V430.228Z" fill="#00BFA6"/>
<path opacity="0.1" d="M992.266 390.228H972.266V447.228H992.266V390.228Z" fill="#00BFA6"/>
<path opacity="0.1" d="M992.266 399.228H972.266V403.228H992.266V399.228Z" fill="#00BFA6"/>
<path opacity="0.1" d="M992.266 430.228H972.266V434.228H992.266V430.228Z" fill="#00BFA6"/>
<path opacity="0.1" d="M1022.27 390.228H1002.27V447.228H1022.27V390.228Z" fill="#00BFA6"/>
<path opacity="0.1" d="M1022.27 399.228H1002.27V403.228H1022.27V399.228Z" fill="#00BFA6"/>
<path opacity="0.1" d="M1022.27 430.228H1002.27V434.228H1022.27V430.228Z" fill="#00BFA6"/>
<path opacity="0.1" d="M1052.27 390.228H1032.27V447.228H1052.27V390.228Z" fill="#00BFA6"/>
<path opacity="0.1" d="M1052.27 399.228H1032.27V403.228H1052.27V399.228Z" fill="#00BFA6"/>
<path opacity="0.1" d="M1052.27 430.228H1032.27V434.228H1052.27V430.228Z" fill="#00BFA6"/>
<path opacity="0.1" d="M1112.27 201.308V253.228H1092.27V197.498C1098.96 198.678 1105.63 199.948 1112.27 201.308Z" fill="#00BFA6"/>
<path opacity="0.1" d="M1112.27 205.228H1092.27V209.228H1112.27V205.228Z" fill="#00BFA6"/>
<path opacity="0.1" d="M1112.27 236.228H1092.27V240.228H1112.27V236.228Z" fill="#00BFA6"/>
<path opacity="0.1" d="M1142.27 208.248V253.248H1122.27V203.448C1124.87 204.018 1127.46 204.618 1130.05 205.228C1134.14 206.188 1138.21 207.194 1142.27 208.248Z" fill="#00BFA6"/>
<path opacity="0.1" d="M1142.27 208.248V209.248H1122.27V205.248H1130.05C1134.14 206.194 1138.21 207.194 1142.27 208.248Z" fill="#00BFA6"/>
<path opacity="0.1" d="M1142.27 236.228H1122.27V240.228H1142.27V236.228Z" fill="#00BFA6"/>
<g opacity="0.1">
<path opacity="0.1" d="M1002.66 328.508C1002.66 328.508 996.596 326.448 993.656 331.798C992.887 333.246 992.496 334.865 992.519 336.504C992.541 338.144 992.977 339.751 993.786 341.178C995.706 344.638 999.656 349.178 1007.14 348.738C1013.49 348.398 1015.6 343.558 1016.14 339.048C1016.34 337.361 1016.12 335.649 1015.48 334.074C1014.84 332.498 1013.81 331.112 1012.49 330.045C1011.16 328.978 1009.59 328.266 1007.92 327.976C1006.24 327.686 1004.52 327.828 1002.92 328.388L1002.66 328.508Z" fill="#00BFA6"/>
<path opacity="0.1" d="M995.106 341.668C994.297 340.241 993.861 338.634 993.838 336.994C993.816 335.355 994.207 333.736 994.976 332.288C997.896 326.948 1003.98 328.998 1003.98 328.998L1004.29 328.888C1006.6 328.051 1009.14 328.108 1011.42 329.048C1010.16 328.3 1008.76 327.841 1007.3 327.703C1005.85 327.564 1004.38 327.75 1003.01 328.248L1002.7 328.358C1002.7 328.358 996.636 326.298 993.696 331.648C992.927 333.096 992.536 334.715 992.558 336.354C992.581 337.994 993.017 339.601 993.826 341.028C995.328 343.893 997.742 346.176 1000.69 347.518C998.325 346.115 996.395 344.092 995.106 341.668V341.668Z" fill="#00BFA6"/>
<path opacity="0.2" d="M999.526 331.078C999.526 331.078 1001.78 332.848 1007.24 331.078Z" fill="#00BFA6"/>
<path opacity="0.1" d="M999.036 318.228C999.036 318.228 1002.89 328.668 1002.57 331.398L1005.62 331.078C1005.62 331.078 1000.48 321.928 1001.77 318.228H999.036Z" fill="#00BFA6"/>
<path opacity="0.2" d="M999.036 318.228C999.036 318.228 1002.89 328.668 1002.57 331.398L1005.62 331.078C1005.62 331.078 1000.48 321.928 1001.77 318.228H999.036Z" fill="#00BFA6"/>
<path opacity="0.1" d="M1014.78 319.108C1014.78 319.108 1008.71 316.008 1006 318.568C1003.29 321.128 1002.87 327.678 1002.87 327.678C1002.87 327.678 1012.76 329.018 1014.78 319.108Z" fill="#00BFA6"/>
<path opacity="0.1" d="M1014.78 319.108C1014.78 319.108 1008.71 316.008 1006 318.568C1003.29 321.128 1002.87 327.678 1002.87 327.678C1002.87 327.678 1012.76 329.018 1014.78 319.108Z" fill="#00BFA6"/>
<path opacity="0.1" d="M1002.86 327.678C1002.86 327.678 1004.45 320.078 1014.77 319.098Z" fill="#00BFA6"/>
</g>
<g opacity="0.1">
<path opacity="0.1" d="M1130.66 427.508C1130.66 427.508 1124.6 425.448 1121.66 430.798C1120.89 432.246 1120.5 433.865 1120.52 435.504C1120.54 437.144 1120.98 438.751 1121.79 440.178C1123.71 443.638 1127.66 448.178 1135.14 447.738C1141.49 447.398 1143.6 442.558 1144.14 438.048C1144.34 436.361 1144.12 434.649 1143.48 433.074C1142.84 431.498 1141.81 430.112 1140.49 429.045C1139.16 427.978 1137.59 427.266 1135.92 426.976C1134.24 426.686 1132.52 426.828 1130.92 427.388L1130.66 427.508Z" fill="#00BFA6"/>
<path opacity="0.1" d="M1123.11 440.668C1122.3 439.241 1121.86 437.634 1121.84 435.994C1121.82 434.355 1122.21 432.736 1122.98 431.288C1125.9 425.948 1131.98 427.998 1131.98 427.998L1132.29 427.888C1134.6 427.051 1137.14 427.108 1139.42 428.048C1138.16 427.3 1136.75 426.841 1135.3 426.703C1133.85 426.564 1132.38 426.75 1131.01 427.248L1130.7 427.358C1130.7 427.358 1124.64 425.298 1121.7 430.648C1120.93 432.096 1120.54 433.715 1120.56 435.354C1120.58 436.994 1121.02 438.601 1121.83 440.028C1123.33 442.893 1125.74 445.176 1128.69 446.518C1126.33 445.115 1124.4 443.092 1123.11 440.668V440.668Z" fill="#00BFA6"/>
<path opacity="0.2" d="M1127.53 430.078C1127.53 430.078 1129.78 431.848 1135.24 430.078Z" fill="#00BFA6"/>
<path opacity="0.1" d="M1127.04 417.228C1127.04 417.228 1130.89 427.668 1130.57 430.398L1133.62 430.078C1133.62 430.078 1128.48 420.928 1129.77 417.228H1127.04Z" fill="#00BFA6"/>
<path opacity="0.2" d="M1127.04 417.228C1127.04 417.228 1130.89 427.668 1130.57 430.398L1133.62 430.078C1133.62 430.078 1128.48 420.928 1129.77 417.228H1127.04Z" fill="#00BFA6"/>
<path opacity="0.1" d="M1142.78 418.108C1142.78 418.108 1136.71 415.008 1134 417.568C1131.29 420.128 1130.87 426.678 1130.87 426.678C1130.87 426.678 1140.76 428.018 1142.78 418.108Z" fill="#00BFA6"/>
<path opacity="0.1" d="M1142.78 418.108C1142.78 418.108 1136.71 415.008 1134 417.568C1131.29 420.128 1130.87 426.678 1130.87 426.678C1130.87 426.678 1140.76 428.018 1142.78 418.108Z" fill="#00BFA6"/>
<path opacity="0.1" d="M1130.86 426.678C1130.86 426.678 1132.45 419.078 1142.77 418.098Z" fill="#00BFA6"/>
</g>
<path opacity="0.1" d="M1333.02 733.058C1362.84 733.058 1387.02 724.462 1387.02 713.858C1387.02 703.254 1362.84 694.658 1333.02 694.658C1303.19 694.658 1279.02 703.254 1279.02 713.858C1279.02 724.462 1303.19 733.058 1333.02 733.058Z" fill="black"/>
<path d="M1333.06 714.018C1333.06 714.018 1363.87 609.428 1327.28 532.438C1311.93 500.128 1306.83 463.858 1313.92 428.798C1317.31 412.167 1322.22 395.882 1328.59 380.148" stroke="#535461" stroke-width="2" stroke-miterlimit="10"/>
<path d="M1305.83 331.488C1305.83 344.308 1329.04 381.488 1329.04 381.488C1329.04 381.488 1352.25 344.318 1352.25 331.488C1352.25 325.332 1349.8 319.429 1345.45 315.076C1341.09 310.723 1335.19 308.278 1329.04 308.278C1322.88 308.278 1316.98 310.723 1312.62 315.076C1308.27 319.429 1305.83 325.332 1305.83 331.488Z" fill="#00BFA6"/>
<path d="M1267.46 402.488C1274.46 413.248 1314.11 431.838 1314.11 431.838C1314.11 431.838 1313.39 388.018 1306.42 377.258C1304.76 374.697 1302.61 372.488 1300.1 370.756C1297.59 369.024 1294.77 367.803 1291.78 367.164C1288.8 366.525 1285.72 366.479 1282.72 367.03C1279.72 367.58 1276.86 368.716 1274.3 370.373C1271.74 372.029 1269.53 374.174 1267.8 376.685C1266.07 379.195 1264.85 382.022 1264.21 385.004C1263.57 387.986 1263.52 391.065 1264.07 394.065C1264.62 397.065 1265.76 399.927 1267.42 402.488H1267.46Z" fill="#00BFA6"/>
<path d="M1269.11 523.828C1280.56 529.598 1324.2 525.608 1324.2 525.608C1324.2 525.608 1301.46 488.148 1290.01 482.378C1287.28 481.005 1284.32 480.183 1281.28 479.956C1278.24 479.73 1275.18 480.105 1272.29 481.059C1269.4 482.013 1266.72 483.528 1264.41 485.517C1262.1 487.506 1260.2 489.931 1258.83 492.653C1257.46 495.374 1256.64 498.34 1256.41 501.379C1256.18 504.419 1256.56 507.473 1257.51 510.368C1258.47 513.263 1259.98 515.942 1261.97 518.251C1263.96 520.56 1266.38 522.455 1269.11 523.828V523.828Z" fill="#00BFA6"/>
<path d="M1291.11 615.348C1301.42 622.968 1345.11 626.418 1345.11 626.418C1345.11 626.418 1329.03 585.648 1318.72 578.028C1316.27 576.215 1313.48 574.902 1310.52 574.165C1307.57 573.428 1304.49 573.281 1301.48 573.732C1298.46 574.182 1295.57 575.223 1292.95 576.793C1290.34 578.363 1288.06 580.432 1286.25 582.883C1284.44 585.333 1283.13 588.117 1282.39 591.074C1281.65 594.032 1281.5 597.106 1281.95 600.121C1282.41 603.135 1283.45 606.032 1285.02 608.644C1286.59 611.257 1288.66 613.535 1291.11 615.348V615.348Z" fill="#00BFA6"/>
<path d="M1362.85 434.318C1353.66 443.248 1310.85 452.498 1310.85 452.498C1310.85 452.498 1321.34 409.948 1330.53 401.018C1332.71 398.877 1335.29 397.189 1338.13 396.05C1340.97 394.911 1344 394.344 1347.06 394.381C1350.12 394.418 1353.14 395.059 1355.95 396.267C1358.75 397.475 1361.3 399.226 1363.43 401.419C1365.56 403.612 1367.23 406.205 1368.36 409.048C1369.48 411.891 1370.04 414.928 1369.98 417.985C1369.93 421.042 1369.28 424.059 1368.05 426.861C1366.83 429.664 1365.07 432.198 1362.87 434.318H1362.85Z" fill="#00BFA6"/>
<path d="M1387.11 541.678C1375.66 547.448 1332.02 543.458 1332.02 543.458C1332.02 543.458 1354.76 505.998 1366.21 500.228C1368.93 498.855 1371.89 498.033 1374.93 497.806C1377.97 497.58 1381.03 497.955 1383.92 498.909C1386.82 499.863 1389.49 501.378 1391.8 503.367C1394.11 505.356 1396.01 507.781 1397.38 510.503C1398.75 513.224 1399.58 516.19 1399.8 519.229C1400.03 522.269 1399.65 525.323 1398.7 528.218C1397.75 531.113 1396.23 533.792 1394.24 536.101C1392.25 538.411 1389.83 540.305 1387.11 541.678V541.678Z" fill="#00BFA6"/>
<path d="M1396.45 649.268C1386.14 656.888 1342.45 660.338 1342.45 660.338C1342.45 660.338 1358.53 619.568 1368.84 611.948C1371.28 610.095 1374.07 608.745 1377.05 607.978C1380.02 607.211 1383.11 607.042 1386.15 607.479C1389.19 607.916 1392.11 608.952 1394.75 610.527C1397.38 612.101 1399.68 614.183 1401.51 616.651C1403.33 619.12 1404.65 621.925 1405.38 624.907C1406.12 627.888 1406.25 630.985 1405.78 634.018C1405.31 637.052 1404.24 639.962 1402.64 642.579C1401.03 645.197 1398.92 647.47 1396.44 649.268H1396.45Z" fill="#00BFA6"/>
<path opacity="0.1" d="M1198.62 677.858C1228.44 677.858 1252.62 669.262 1252.62 658.658C1252.62 648.054 1228.44 639.458 1198.62 639.458C1168.79 639.458 1144.62 648.054 1144.62 658.658C1144.62 669.262 1168.79 677.858 1198.62 677.858Z" fill="black"/>
<path d="M1196.43 661.388C1196.43 661.388 1210.86 612.388 1193.72 576.318C1186.43 561.235 1184.23 544.195 1187.46 527.758C1189.05 519.967 1191.35 512.338 1194.34 504.968" stroke="#535461" stroke-width="2" stroke-miterlimit="10"/>
<path d="M1183.67 482.168C1183.67 488.168 1194.54 505.588 1194.54 505.588C1194.54 505.588 1205.41 488.168 1205.41 482.168C1205.41 479.284 1204.26 476.517 1202.22 474.478C1200.18 472.439 1197.41 471.293 1194.53 471.293C1191.65 471.293 1188.88 472.439 1186.84 474.478C1184.8 476.517 1183.66 479.284 1183.66 482.168H1183.67Z" fill="#00BFA6"/>
<path d="M1165.7 515.428C1168.96 520.428 1187.56 529.178 1187.56 529.178C1187.56 529.178 1187.22 508.648 1183.96 503.608C1183.18 502.409 1182.17 501.374 1181 500.564C1179.82 499.753 1178.5 499.182 1177.1 498.883C1175.71 498.584 1174.26 498.563 1172.86 498.821C1171.45 499.079 1170.11 499.612 1168.92 500.388C1167.72 501.164 1166.68 502.169 1165.87 503.344C1165.06 504.52 1164.49 505.844 1164.19 507.241C1163.89 508.637 1163.87 510.079 1164.13 511.484C1164.39 512.889 1164.92 514.229 1165.7 515.428V515.428Z" fill="#00BFA6"/>
<path d="M1166.48 572.278C1171.84 574.978 1192.29 573.118 1192.29 573.118C1192.29 573.118 1181.64 555.568 1176.29 552.858C1175.01 552.215 1173.62 551.83 1172.2 551.724C1170.77 551.618 1169.34 551.793 1167.99 552.24C1165.25 553.143 1162.98 555.098 1161.68 557.673C1160.38 560.248 1160.16 563.234 1161.06 565.972C1161.97 568.711 1163.92 570.98 1166.5 572.278H1166.48Z" fill="#00BFA6"/>
<path d="M1176.76 615.158C1181.59 618.728 1202.06 620.348 1202.06 620.348C1202.06 620.348 1194.52 601.248 1189.7 597.678C1188.55 596.829 1187.24 596.214 1185.86 595.869C1184.47 595.524 1183.03 595.456 1181.62 595.668C1180.21 595.879 1178.85 596.367 1177.63 597.103C1176.4 597.839 1175.33 598.809 1174.49 599.958C1173.64 601.106 1173.02 602.411 1172.68 603.796C1172.33 605.182 1172.26 606.623 1172.48 608.035C1172.69 609.447 1173.18 610.804 1173.91 612.028C1174.65 613.252 1175.62 614.319 1176.77 615.168L1176.76 615.158Z" fill="#00BFA6"/>
<path d="M1210.39 530.348C1206.08 534.528 1186.01 538.868 1186.01 538.868C1186.01 538.868 1190.93 518.928 1195.23 514.748C1197.29 512.739 1200.08 511.634 1202.96 511.676C1205.84 511.718 1208.59 512.904 1210.6 514.973C1212.61 517.041 1213.71 519.823 1213.67 522.707C1213.63 525.59 1212.44 528.339 1210.38 530.348H1210.39Z" fill="#00BFA6"/>
<path d="M1221.78 580.648C1216.42 583.348 1195.97 581.488 1195.97 581.488C1195.97 581.488 1206.62 563.938 1211.97 561.228C1214.54 559.93 1217.53 559.708 1220.27 560.61C1223 561.513 1225.27 563.468 1226.57 566.043C1227.87 568.618 1228.09 571.604 1227.19 574.342C1226.28 577.081 1224.33 579.35 1221.76 580.648H1221.78Z" fill="#00BFA6"/>
<path d="M1226.11 631.018C1221.28 634.588 1200.81 636.208 1200.81 636.208C1200.81 636.208 1208.35 617.108 1213.17 613.538C1214.31 612.688 1215.62 612.073 1217 611.727C1218.39 611.381 1219.83 611.312 1221.24 611.523C1222.65 611.733 1224.01 612.22 1225.23 612.956C1226.46 613.691 1227.53 614.66 1228.38 615.808C1229.23 616.956 1229.84 618.259 1230.19 619.645C1230.53 621.03 1230.6 622.471 1230.39 623.883C1230.18 625.295 1229.69 626.652 1228.96 627.877C1228.22 629.101 1227.25 630.168 1226.11 631.018Z" fill="#00BFA6"/>
<g clip-path="url(#clip0)">
<path d="M151.292 759.524L125.678 783.104L146.034 748.949C129.997 719.867 103.768 694.733 103.768 694.733C103.768 694.733 49.3533 746.867 49.3533 787.848C49.3533 828.828 73.7156 843.137 103.768 843.137C133.821 843.137 158.183 828.828 158.183 787.848C158.183 778.726 155.483 769.053 151.292 759.524Z" fill="#F2F2F2"/>
<path d="M119.091 784.381V786.401C118.971 809.881 115.011 828.201 107.241 841.101C107.131 841.291 107.011 841.471 106.901 841.661L106.031 841.131L105.201 840.611C113.821 826.681 116.871 806.991 116.981 786.511C116.991 785.851 117.001 785.181 116.991 784.511C116.961 775.841 116.431 767.071 115.581 758.551C115.521 757.891 115.451 757.221 115.381 756.551C114.201 745.311 112.501 734.571 110.761 725.241C110.641 724.581 110.511 723.921 110.381 723.271C107.371 707.491 104.301 696.061 103.601 693.531C103.521 693.221 103.471 693.051 103.461 693.011L104.411 692.741L104.421 692.731L105.381 692.461C105.391 692.501 105.561 693.071 105.841 694.131C106.911 698.091 109.691 708.841 112.421 723.021C112.541 723.661 112.671 724.321 112.791 724.981C114.211 732.551 115.601 741.011 116.701 749.891C116.981 752.121 117.231 754.321 117.451 756.491C117.531 757.161 117.601 757.831 117.661 758.491C118.581 767.701 119.058 776.331 119.091 784.381Z" fill="white"/>
<path d="M112.421 723.021C111.751 723.111 111.071 723.201 110.381 723.271C108.508 723.464 106.625 723.56 104.741 723.561C96.7135 723.571 88.7855 721.781 81.5414 718.321C81.1214 718.851 80.7014 719.381 80.2714 719.921C87.8919 723.64 96.2616 725.57 104.741 725.561C106.752 725.56 108.762 725.453 110.761 725.241C111.441 725.171 112.121 725.081 112.791 724.981C118.322 724.187 123.7 722.559 128.741 720.151C128.311 719.601 127.891 719.061 127.481 718.531C122.71 720.761 117.635 722.274 112.421 723.021Z" fill="white"/>
<path d="M117.451 756.491C116.761 756.531 116.071 756.551 115.381 756.551C115.171 756.561 114.951 756.561 114.741 756.561C106.043 756.561 97.473 754.458 89.7628 750.43C82.0526 746.403 75.4307 740.57 70.4615 733.431C70.0615 734.021 69.6615 734.611 69.2715 735.211C74.4509 742.435 81.2769 748.321 89.1842 752.382C97.0915 756.442 105.853 758.56 114.741 758.561C115.021 758.561 115.301 758.561 115.581 758.551C116.281 758.541 116.971 758.521 117.661 758.491C128.339 757.944 138.632 754.333 147.311 748.091C146.991 747.501 146.671 746.911 146.341 746.321C137.906 752.45 127.866 755.984 117.451 756.491Z" fill="white"/>
<path d="M119.091 784.381C118.391 784.441 117.691 784.481 116.991 784.511C116.241 784.541 115.491 784.561 114.741 784.561C103.053 784.547 91.6827 780.748 82.3338 773.732C72.985 766.716 66.1602 756.86 62.8814 745.641C62.4314 746.451 61.9814 747.251 61.5514 748.061C65.2458 759.254 72.3735 768.999 81.922 775.91C91.4705 782.821 102.954 786.548 114.741 786.561C115.491 786.561 116.241 786.551 116.981 786.511C117.691 786.491 118.391 786.451 119.091 786.401C133.23 785.295 146.421 778.857 155.991 768.391C155.781 767.651 155.541 766.921 155.301 766.181C146.057 776.725 133.069 783.253 119.091 784.381Z" fill="white"/>
<path d="M549.965 352.308C571.504 352.308 588.965 334.847 588.965 313.308C588.965 291.768 571.504 274.308 549.965 274.308C528.425 274.308 510.965 291.768 510.965 313.308C510.965 334.847 528.425 352.308 549.965 352.308Z" fill="#F0F0F0"/>
<path d="M749.554 276.308V436.708C732.914 437.27 716.787 442.607 703.097 452.082C689.407 461.558 678.731 474.772 672.344 490.148C672.065 490.818 671.795 491.488 671.534 492.158C668.043 501.205 666.099 510.775 665.784 520.468H505.395V398.388H630.415V276.308H749.554Z" fill="#05AA9E"/>
<path d="M768.673 444.056V527.82H684.909C685.652 505.841 694.716 484.965 710.267 469.414C725.817 453.864 746.694 444.8 768.673 444.056Z" fill="#05AA9E"/>
<path d="M606.884 288.148V371.908H523.114C523.662 355.671 528.758 339.914 537.822 326.431C546.887 312.949 559.555 302.283 574.384 295.648C575.065 295.338 575.755 295.038 576.445 294.748C586.108 290.722 596.422 288.486 606.884 288.148Z" fill="#05AA9E"/>
<path d="M749.552 299.841H630.414V323.374H749.552V299.841Z" fill="#3F3D56"/>
<path d="M749.552 351.32H630.414V374.854H749.552V351.32Z" fill="#3F3D56"/>
<path d="M768.673 479.283V502.816H689.454C692.327 494.384 696.484 486.446 701.779 479.283H768.673Z" fill="#3F3D56"/>
<path d="M518.045 398.388H515.965C524.266 441.423 545.326 480.964 576.405 511.868C579.364 514.828 582.398 517.694 585.505 520.468H588.665C552.251 488.721 527.411 445.781 518.045 398.388Z" fill="#E4E4E4"/>
<path d="M595.005 398.388C582.417 370.379 575.926 340.015 575.965 309.308C575.965 304.418 576.125 299.564 576.445 294.748C575.755 295.038 575.065 295.338 574.385 295.648C574.105 300.178 573.965 304.731 573.965 309.308C573.939 330.498 576.967 351.581 582.955 371.908C585.612 380.939 588.863 389.785 592.685 398.388C609.661 436.416 636.983 468.908 671.534 492.158C671.795 491.488 672.065 490.818 672.345 490.148C638.536 467.345 611.754 435.569 595.005 398.388Z" fill="#E4E4E4"/>
<path d="M529.965 506.308C536.04 506.308 540.965 501.383 540.965 495.308C540.965 489.232 536.04 484.308 529.965 484.308C523.889 484.308 518.965 489.232 518.965 495.308C518.965 501.383 523.889 506.308 529.965 506.308Z" fill="#3F3D56"/>
<path d="M740.181 244.39C740.181 284.08 717.331 298.75 688.591 299.64C688.191 299.65 687.791 299.66 687.381 299.67C686.851 299.68 686.311 299.68 685.771 299.68C655.711 299.68 631.351 285.37 631.351 244.39C631.377 240.798 631.756 237.218 632.481 233.7L656.961 264.31L637.801 217.08C639.311 213.56 641.031 210.06 642.901 206.6C643.331 205.79 643.781 204.99 644.231 204.18C646.241 200.63 648.391 197.14 650.621 193.75C651.011 193.15 651.411 192.56 651.811 191.97C655.011 187.2 658.351 182.66 661.621 178.46C662.051 177.92 662.471 177.39 662.891 176.86C669.761 168.178 677.127 159.901 684.951 152.07C685.441 151.59 685.721 151.32 685.761 151.28L685.771 151.27C685.771 151.27 686.281 151.75 687.191 152.67C694.857 160.391 702.081 168.537 708.831 177.07C709.241 177.6 709.661 178.14 710.091 178.69C716.608 186.958 722.492 195.706 727.691 204.86C728.021 205.45 728.341 206.04 728.661 206.63C731.84 212.419 734.513 218.471 736.651 224.72C736.891 225.46 737.131 226.19 737.341 226.93C739.14 232.579 740.097 238.462 740.181 244.39Z" fill="#E4E4E4"/>
<path d="M700.441 242.92V244.94C700.321 268.42 696.361 286.74 688.591 299.64C688.481 299.83 688.361 300.01 688.251 300.2L687.381 299.67L686.551 299.15C695.171 285.22 698.221 265.53 698.331 245.05C698.341 244.39 698.351 243.72 698.341 243.05C698.311 234.38 697.781 225.61 696.931 217.09C696.871 216.43 696.801 215.76 696.731 215.09C695.551 203.85 693.851 193.11 692.111 183.78C691.991 183.12 691.861 182.46 691.731 181.81C688.721 166.03 685.651 154.6 684.951 152.07C684.871 151.76 684.821 151.59 684.811 151.55L685.761 151.28L685.771 151.27L686.731 151C686.741 151.04 686.911 151.61 687.191 152.67C688.261 156.63 691.041 167.38 693.771 181.56C693.891 182.2 694.021 182.86 694.141 183.52C695.561 191.09 696.951 199.55 698.051 208.43C698.331 210.66 698.581 212.86 698.801 215.03C698.881 215.7 698.951 216.37 699.011 217.03C699.931 226.24 700.408 234.87 700.441 242.92Z" fill="white"/>
<path d="M795.292 353.063L769.678 376.643L790.034 342.489C773.997 313.407 747.768 288.273 747.768 288.273C747.768 288.273 693.353 340.406 693.353 381.387C693.353 422.368 717.716 436.677 747.768 436.677C777.82 436.677 802.183 422.368 802.183 381.387C802.183 372.266 799.483 362.592 795.292 353.063Z" fill="#E4E4E4"/>
<path d="M309.782 586.185C309.471 584.866 308.874 583.63 308.033 582.566C307.193 581.502 306.129 580.635 304.917 580.026C303.705 579.418 302.375 579.082 301.019 579.043C299.663 579.005 298.316 579.264 297.071 579.802L274.788 555.51L270.624 572.126L292.423 592.647C293.466 594.678 295.218 596.256 297.347 597.081C299.475 597.907 301.833 597.923 303.973 597.127C306.112 596.33 307.886 594.777 308.956 592.76C310.027 590.743 310.321 588.404 309.782 586.185H309.782Z" fill="#9F616A"/>
<path d="M261.922 828.523L275.537 828.522L282.015 776.005L261.92 776.006L261.922 828.523Z" fill="#9F616A"/>
<path d="M258.449 824.077L285.263 824.076H285.264C289.796 824.076 294.142 825.877 297.346 829.081C300.551 832.286 302.351 836.632 302.351 841.164V841.719L258.45 841.721L258.449 824.077Z" fill="#2F2E41"/>
<path d="M183.733 815.035L196.462 819.867L221.155 773.067L202.368 765.937L183.733 815.035Z" fill="#9F616A"/>
<path d="M182.063 809.647L207.132 819.162L207.133 819.162C211.37 820.771 214.794 823.996 216.653 828.129C218.511 832.262 218.652 836.965 217.044 841.201L216.847 841.721L175.803 826.142L182.063 809.647Z" fill="#2F2E41"/>
<path d="M228.552 653.84L217.269 714.553C217.269 714.553 186.644 799.981 188.793 802.13C190.942 804.28 220.493 811.801 218.881 806.966C217.269 802.13 254.342 729.597 254.342 729.597L228.552 653.84Z" fill="#2F2E41"/>
<path d="M274.307 543.509C274.307 543.509 297.084 573.283 294.099 574.907C291.115 576.531 279.553 585.144 279.553 585.144L267.789 552.859L274.307 543.509Z" fill="#E4E4E4"/>
<path d="M280.669 573.562C280.669 573.562 284.43 601.501 282.818 607.411C281.206 613.321 282.281 780.954 283.355 783.64C284.43 786.327 287.653 795.46 286.042 799.759C284.43 804.057 262.401 814.803 259.177 811.042C255.954 807.281 232.313 670.273 232.313 670.273C232.313 670.273 199.002 587.532 206.524 579.472C214.046 571.413 280.669 573.562 280.669 573.562Z" fill="#2F2E41"/>
<path d="M237.57 393.479C251.819 390.587 261.026 376.691 258.135 362.442C255.243 348.193 241.347 338.985 227.097 341.877C212.848 344.769 203.641 358.665 206.533 372.915C209.425 387.164 223.321 396.371 237.57 393.479Z" fill="#9F616A"/>
<path d="M253.804 349.704C253.819 345.094 249.597 341.644 245.471 339.587C236.493 335.145 226.289 333.828 216.477 335.843C209.58 337.282 202.824 340.555 198.523 346.136C193.505 352.645 192.445 361.666 194.587 369.6C196.73 377.535 201.773 384.449 207.813 390.022C210.713 392.696 215.006 395.203 218.345 393.103C219.625 392.153 220.631 390.881 221.261 389.416C222.996 386.067 224.387 382.551 225.411 378.921C226.195 376.143 226.778 373.265 228.176 370.739C229.573 368.214 232.001 366.035 234.882 365.853C237.261 365.703 239.862 366.871 241.914 365.658C244.197 364.308 244.154 361.047 243.823 358.415C243.46 355.531 242.641 352.27 242.885 349.424C243.841 349.71 253.81 351.911 253.804 349.704Z" fill="#2F2E41"/>
<path d="M327.38 557.311L296.082 562.895L301.666 594.193L332.964 588.609L327.38 557.311Z" fill="#05AA9E"/>
<path d="M310.025 560.256C315.39 560.256 319.739 555.907 319.739 550.542C319.739 545.177 315.39 540.828 310.025 540.828C304.66 540.828 300.311 545.177 300.311 550.542C300.311 555.907 304.66 560.256 310.025 560.256Z" fill="#3F3D56"/>
<path d="M259.842 427.176C259.176 422.912 257.054 419.011 253.837 416.136L249.035 401.461H220.826L212.966 413.796C204.461 417.458 198.164 423.263 197.927 430.107C196.627 434.653 202.225 578.935 203.837 584.308C204.31 585.871 210.741 586.709 219.773 587.08C228.058 587.419 238.529 587.37 248.582 587.139C265.227 586.752 280.744 585.861 283.355 585.382C289.265 584.308 260.427 430.566 259.842 427.176Z" fill="#E4E4E4"/>
<path d="M234.901 618.506C233.758 617.776 232.789 616.804 232.062 615.659C231.336 614.514 230.869 613.224 230.695 611.879C230.521 610.534 230.643 609.167 231.055 607.875C231.466 606.583 232.155 605.396 233.075 604.399L217.506 575.343L234.565 576.901L246.734 604.255C248.306 605.91 249.217 608.085 249.293 610.367C249.369 612.649 248.606 614.879 247.147 616.636C245.689 618.393 243.637 619.553 241.379 619.898C239.122 620.242 236.817 619.747 234.901 618.506V618.506Z" fill="#9F616A"/>
<path d="M416 843.308H35C34.7348 843.308 34.4804 843.202 34.2929 843.015C34.1054 842.827 34 842.573 34 842.308C34 842.042 34.1054 841.788 34.2929 841.6C34.4804 841.413 34.7348 841.308 35 841.308H416C416.265 841.308 416.52 841.413 416.707 841.6C416.895 841.788 417 842.042 417 842.308C417 842.573 416.895 842.827 416.707 843.015C416.52 843.202 416.265 843.308 416 843.308Z" fill="#CACACA"/>
<path d="M232.313 411.303C232.313 411.303 257.028 421.511 247.894 447.301C238.761 473.09 228.552 503.715 228.552 503.715C228.552 503.715 241.447 573.025 241.447 575.711C241.447 578.398 249.506 592.904 246.283 595.591C243.059 598.277 221.568 603.65 221.03 600.964C219.383 594.775 217.411 588.677 215.12 582.696C214.046 580.547 188.793 513.386 192.017 507.476C194.389 503.127 196.471 463.281 197.404 442.537C197.62 436.619 199.373 430.859 202.491 425.824C205.609 420.789 209.984 416.653 215.185 413.822C220.195 411.167 226.027 409.731 232.313 411.303Z" fill="#E4E4E4"/>
<path d="M693.771 181.56C693.101 181.65 692.421 181.74 691.731 181.81C689.858 182.003 687.975 182.1 686.091 182.1C678.064 182.111 670.135 180.32 662.891 176.86C662.471 177.39 662.051 177.92 661.621 178.46C669.242 182.18 677.612 184.109 686.091 184.1C688.102 184.099 690.112 183.993 692.111 183.78C692.791 183.71 693.471 183.62 694.141 183.52C699.672 182.727 705.05 181.098 710.091 178.69C709.661 178.14 709.241 177.6 708.831 177.07C704.06 179.3 698.985 180.813 693.771 181.56Z" fill="white"/>
<path d="M698.801 215.03C698.111 215.07 697.421 215.09 696.731 215.09C696.521 215.1 696.301 215.1 696.091 215.1C687.393 215.1 678.823 212.997 671.113 208.969C663.403 204.942 656.781 199.11 651.811 191.97C651.411 192.56 651.011 193.15 650.622 193.75C655.801 200.974 662.627 206.86 670.534 210.921C678.442 214.982 687.203 217.1 696.091 217.1C696.371 217.1 696.652 217.1 696.932 217.09C697.632 217.08 698.321 217.06 699.011 217.03C709.689 216.483 719.982 212.873 728.661 206.63C728.341 206.04 728.021 205.45 727.691 204.86C719.256 210.989 709.216 214.523 698.801 215.03Z" fill="white"/>
<path d="M700.441 242.92C699.741 242.98 699.041 243.02 698.341 243.05C697.591 243.08 696.841 243.1 696.091 243.1C684.403 243.087 673.033 239.287 663.684 232.271C654.335 225.255 647.51 215.399 644.231 204.18C643.781 204.99 643.331 205.79 642.901 206.6C646.596 217.793 653.724 227.538 663.272 234.449C672.821 241.361 684.304 245.087 696.091 245.1C696.841 245.1 697.591 245.09 698.331 245.05C699.041 245.03 699.741 244.99 700.441 244.94C714.58 243.834 727.771 237.396 737.341 226.93C737.131 226.19 736.891 225.46 736.651 224.72C727.407 235.264 714.419 241.793 700.441 242.92Z" fill="white"/>
<path d="M763.091 379.92V381.94C762.971 405.42 759.011 423.74 751.241 436.64C751.131 436.83 751.011 437.01 750.901 437.2L750.031 436.67L749.201 436.15C757.821 422.22 760.871 402.53 760.981 382.05C760.991 381.39 761.001 380.72 760.991 380.05C760.961 371.38 760.431 362.61 759.581 354.09C759.521 353.43 759.451 352.76 759.381 352.09C758.201 340.85 756.501 330.11 754.761 320.78C754.641 320.12 754.511 319.46 754.381 318.81C751.371 303.03 748.301 291.6 747.601 289.07C747.521 288.76 747.471 288.59 747.461 288.55L748.411 288.28L748.421 288.27L749.381 288C749.391 288.04 749.561 288.61 749.841 289.67C750.911 293.63 753.691 304.38 756.421 318.56C756.541 319.2 756.671 319.86 756.791 320.52C758.211 328.09 759.601 336.55 760.701 345.43C760.981 347.66 761.231 349.86 761.451 352.03C761.531 352.7 761.601 353.37 761.661 354.03C762.581 363.24 763.058 371.87 763.091 379.92Z" fill="white"/>
<path d="M756.421 318.56C755.751 318.65 755.071 318.74 754.381 318.81C752.508 319.003 750.625 319.1 748.741 319.1C740.714 319.111 732.785 317.32 725.541 313.86C725.121 314.39 724.701 314.92 724.271 315.46C731.892 319.18 740.262 321.109 748.741 321.1C750.752 321.099 752.762 320.993 754.761 320.78C755.441 320.71 756.121 320.62 756.791 320.52C762.322 319.727 767.7 318.098 772.741 315.69C772.311 315.14 771.891 314.6 771.481 314.07C766.71 316.3 761.635 317.813 756.421 318.56Z" fill="white"/>
<path d="M761.451 352.03C760.761 352.07 760.071 352.09 759.381 352.09C759.171 352.1 758.951 352.1 758.741 352.1C750.043 352.1 741.473 349.997 733.763 345.969C726.053 341.942 719.431 336.11 714.461 328.97C714.061 329.56 713.661 330.15 713.272 330.75C718.451 337.974 725.277 343.86 733.184 347.921C741.092 351.982 749.853 354.1 758.742 354.1C759.022 354.1 759.302 354.1 759.582 354.09C760.282 354.08 760.972 354.06 761.662 354.03C772.339 353.483 782.632 349.873 791.312 343.63C790.992 343.04 790.672 342.45 790.342 341.86C781.906 347.989 771.866 351.523 761.451 352.03Z" fill="white"/>
<path d="M763.091 379.92C762.391 379.98 761.691 380.02 760.991 380.05C760.241 380.08 759.491 380.1 758.741 380.1C747.053 380.087 735.683 376.287 726.334 369.271C716.985 362.255 710.16 352.399 706.881 341.18C706.431 341.99 705.981 342.79 705.551 343.6C709.246 354.793 716.374 364.538 725.922 371.449C735.471 378.361 746.954 382.087 758.741 382.1C759.491 382.1 760.241 382.09 760.981 382.05C761.691 382.03 762.391 381.99 763.091 381.94C777.23 380.834 790.421 374.396 799.991 363.93C799.781 363.19 799.541 362.46 799.301 361.72C790.057 372.264 777.069 378.793 763.091 379.92Z" fill="white"/>
</g>
<path d="M1116.42 760.523C1113.1 733.845 1096.57 707.559 1071.13 698.877C1081.16 726.336 1081.16 756.46 1071.12 783.918C1067.21 794.493 1061.76 805.848 1065.44 816.506C1067.73 823.138 1073.32 828.212 1079.58 831.385C1085.84 834.558 1092.78 836.07 1099.64 837.552L1100.99 838.668C1111.88 814.087 1119.74 787.201 1116.42 760.523Z" fill="#F0F0F0"/>
<path d="M1070.87 699.382C1085.69 715.983 1094.9 736.832 1097.19 758.965C1097.77 763.721 1097.6 768.539 1096.67 773.24C1095.63 777.791 1093.38 781.979 1090.17 785.368C1087.24 788.589 1083.87 791.544 1081.77 795.421C1080.73 797.421 1080.12 799.62 1079.98 801.873C1079.85 804.125 1080.19 806.381 1080.99 808.492C1082.84 813.803 1086.49 818.132 1090.21 822.241C1094.33 826.804 1098.69 831.477 1100.44 837.526C1100.66 838.259 1101.78 837.887 1101.57 837.155C1098.52 826.631 1088.3 820.653 1083.43 811.174C1081.16 806.751 1080.2 801.616 1082.33 796.947C1084.2 792.864 1087.67 789.814 1090.67 786.579C1093.85 783.319 1096.18 779.328 1097.47 774.957C1098.63 770.318 1098.99 765.515 1098.53 760.755C1097.68 750.021 1095.15 739.488 1091.03 729.541C1086.39 718.163 1079.84 707.662 1071.66 698.493C1071.15 697.926 1070.37 698.818 1070.87 699.382V699.382Z" fill="white"/>
<path d="M1096.87 751.795C1100.54 750.906 1103.76 748.744 1105.98 745.696C1108.19 742.649 1109.25 738.913 1108.97 735.156C1108.9 734.396 1107.72 734.454 1107.78 735.215C1108.05 738.713 1107.07 742.193 1105 745.027C1102.93 747.861 1099.92 749.862 1096.5 750.67C1095.76 750.846 1096.14 751.97 1096.87 751.795Z" fill="white"/>
<path d="M1091.87 783.931C1085.26 779.983 1080.38 773.687 1078.2 766.299C1077.99 765.567 1076.86 765.94 1077.08 766.671C1079.36 774.355 1084.45 780.896 1091.34 784.99C1092 785.379 1092.53 784.319 1091.87 783.931V783.931Z" fill="white"/>
<path d="M1085.29 719.285C1083.95 719.924 1082.47 720.219 1080.98 720.144C1079.49 720.068 1078.05 719.625 1076.77 718.853C1076.12 718.455 1075.59 719.516 1076.24 719.911C1077.65 720.757 1079.25 721.245 1080.89 721.333C1082.53 721.42 1084.17 721.103 1085.66 720.41C1085.81 720.357 1085.93 720.25 1086 720.111C1086.07 719.972 1086.09 719.811 1086.04 719.662C1085.99 719.513 1085.88 719.39 1085.74 719.32C1085.6 719.249 1085.44 719.237 1085.29 719.285Z" fill="white"/>
<path d="M993.573 746.528C993.973 746.788 994.373 747.048 994.773 747.318C1000.13 750.841 1005.2 754.794 1009.91 759.138C1010.28 759.468 1010.65 759.808 1011.01 760.148C1022.27 770.733 1031.46 783.316 1038.12 797.258C1040.77 802.808 1042.99 808.551 1044.76 814.438C1047.21 822.568 1049.22 831.578 1054.07 838.228C1054.57 838.927 1055.11 839.595 1055.69 840.228H1099.52C1099.62 840.178 1099.72 840.138 1099.82 840.088L1101.57 840.168C1101.5 839.858 1101.42 839.538 1101.35 839.228C1101.31 839.048 1101.26 838.868 1101.22 838.688C1101.19 838.568 1101.16 838.448 1101.14 838.338C1101.13 838.298 1101.12 838.258 1101.11 838.228C1101.09 838.118 1101.06 838.018 1101.04 837.918C1100.6 836.128 1100.15 834.338 1099.68 832.548C1099.68 832.538 1099.68 832.538 1099.67 832.528C1096.08 818.898 1091.32 805.448 1084.67 793.148C1084.47 792.778 1084.27 792.398 1084.05 792.028C1081.03 786.5 1077.55 781.229 1073.66 776.268C1071.53 773.558 1069.25 770.958 1066.85 768.478C1060.64 762.081 1053.46 756.702 1045.57 752.538C1029.85 744.238 1011.65 741.058 994.853 746.128C994.423 746.258 994.003 746.388 993.573 746.528Z" fill="#F0F0F0"/>
<path d="M993.672 747.084C1015.5 751.419 1035.4 762.52 1050.56 778.812C1053.88 782.261 1056.65 786.213 1058.74 790.522C1060.64 794.786 1061.37 799.481 1060.85 804.121C1060.45 808.458 1059.54 812.847 1060.19 817.205C1060.57 819.431 1061.4 821.553 1062.65 823.433C1063.9 825.313 1065.53 826.907 1067.44 828.112C1072.12 831.238 1077.64 832.497 1083.08 833.541C1089.12 834.7 1095.41 835.807 1100.45 839.581C1101.07 840.038 1101.74 839.064 1101.13 838.607C1092.36 832.042 1080.6 833.419 1071 828.784C1066.53 826.622 1062.67 823.096 1061.56 818.085C1060.59 813.703 1061.53 809.176 1061.97 804.789C1062.55 800.27 1062.01 795.678 1060.41 791.415C1058.54 787.014 1055.94 782.962 1052.71 779.434C1045.57 771.375 1037.2 764.489 1027.93 759.028C1017.37 752.737 1005.82 748.297 993.763 745.902C993.017 745.754 992.931 746.937 993.672 747.084H993.672Z" fill="white"/>
<path d="M1045.99 773.279C1048.38 770.365 1049.65 766.697 1049.58 762.93C1049.52 759.163 1048.11 755.542 1045.62 752.714C1045.12 752.144 1044.21 752.903 1044.71 753.474C1047.04 756.103 1048.34 759.476 1048.4 762.984C1048.45 766.492 1047.25 769.904 1045.01 772.604C1044.53 773.192 1045.5 773.863 1045.99 773.279V773.279Z" fill="white"/>
<path d="M1061.34 801.95C1053.69 802.778 1046 800.69 1039.81 796.103C1039.2 795.647 1038.52 796.622 1039.14 797.077C1045.58 801.839 1053.59 803.995 1061.55 803.115C1062.31 803.031 1062.1 801.866 1061.34 801.95V801.95Z" fill="white"/>
<path d="M1017.17 754.295C1016.48 755.615 1015.47 756.743 1014.24 757.578C1013.01 758.413 1011.59 758.929 1010.1 759.079C1009.34 759.154 1009.56 760.319 1010.32 760.245C1011.95 760.071 1013.52 759.5 1014.88 758.58C1016.25 757.661 1017.37 756.421 1018.14 754.969C1018.23 754.839 1018.26 754.681 1018.23 754.528C1018.2 754.374 1018.12 754.238 1017.99 754.145C1017.86 754.056 1017.7 754.022 1017.55 754.05C1017.39 754.078 1017.26 754.166 1017.17 754.295V754.295Z" fill="white"/>
<path d="M1039.09 439.228C1047.93 439.228 1055.09 432.064 1055.09 423.228C1055.09 414.391 1047.93 407.228 1039.09 407.228C1030.25 407.228 1023.09 414.391 1023.09 423.228C1023.09 432.064 1030.25 439.228 1039.09 439.228Z" fill="#E4E4E4"/>
<path d="M1044.09 422.228H874.972V424.228H1044.09V422.228Z" fill="#E4E4E4"/>
<path d="M858.091 450.728C853.641 450.728 849.29 449.408 845.59 446.936C841.89 444.463 839.006 440.949 837.303 436.838C835.6 432.727 835.155 428.203 836.023 423.838C836.891 419.473 839.034 415.464 842.181 412.318C845.327 409.171 849.337 407.028 853.701 406.16C858.066 405.292 862.59 405.737 866.701 407.44C870.812 409.143 874.326 412.027 876.799 415.727C879.271 419.427 880.591 423.777 880.591 428.228C880.584 434.193 878.211 439.912 873.993 444.13C869.775 448.348 864.056 450.721 858.091 450.728V450.728Z" fill="#F0F0F0"/>
<path d="M888.9 829.902L876.785 828.029L878.246 780.405L896.127 783.17L888.9 829.902Z" fill="#9E616A"/>
<path d="M890.174 842.124L851.108 836.083L851.184 835.589C851.808 831.556 854.008 827.936 857.3 825.526C860.593 823.115 864.708 822.111 868.741 822.734L868.742 822.734L892.602 826.424L890.174 842.124Z" fill="#2F2E41"/>
<path d="M1016.24 828.702L1003.99 829.224L996.147 782.227L1014.22 781.457L1016.24 828.702Z" fill="#9E616A"/>
<path d="M1019.87 840.442L980.372 842.124L980.351 841.625C980.177 837.548 981.63 833.569 984.39 830.563C987.15 827.557 990.991 825.771 995.068 825.597H995.069L1019.19 824.569L1019.87 840.442Z" fill="#2F2E41"/>
<path d="M992.121 548.522C992.699 548.359 993.291 548.249 993.889 548.192L986.253 485.692L960.344 430.824C958.714 427.372 958.453 423.431 959.615 419.795C960.776 416.159 963.274 413.099 966.603 411.231C969.932 409.364 973.845 408.829 977.554 409.734C981.262 410.638 984.489 412.915 986.584 416.106V416.106C993.375 426.445 998.512 437.78 1001.81 449.702L1012.69 489.059L1004.73 556.551C1005.04 558.454 1004.79 560.404 1004.01 562.167C1003.24 563.93 1001.97 565.431 1000.36 566.489C998.745 567.547 996.864 568.118 994.937 568.132C993.011 568.146 991.121 567.603 989.496 566.569C987.87 565.534 986.579 564.052 985.776 562.3C984.973 560.549 984.694 558.603 984.971 556.696C985.248 554.789 986.071 553.003 987.339 551.553C988.608 550.103 990.268 549.05 992.121 548.522V548.522Z" fill="#9E616A"/>
<path d="M954.239 430.708C952.367 425.614 952.56 419.989 954.777 415.036C956.994 410.082 961.059 406.19 966.105 404.192C971.151 402.193 976.778 402.246 981.785 404.339C986.793 406.432 990.784 410.399 992.908 415.394L1009.12 453.535L976.39 490.982L954.239 430.708Z" fill="#2F2E41"/>
<path d="M929.091 437.228L951.091 400.228C966.288 390.291 978.791 396.788 985.456 413.678C991.264 428.394 995.772 447.011 993.091 466.228C987.084 509.273 982.091 514.228 982.091 514.228C982.091 514.228 1019.59 555.728 1011.59 608.728L1017.59 808.728L999.591 807.728L974.591 692.728L955.591 620.728L922.591 708.728L893.591 810.728L873.591 806.728L885.591 693.728L902.591 563.728L922.091 514.228L912.591 479.728C912.591 479.728 901.591 455.728 929.091 437.228Z" fill="#2F2E41"/>
<path d="M855.984 490.071C856.388 490.516 856.751 490.996 857.068 491.506L909.572 456.749L947.082 409.054C949.441 406.054 952.851 404.06 956.623 403.474C960.395 402.889 964.248 403.756 967.406 405.9C970.564 408.044 972.792 411.306 973.639 415.028C974.487 418.749 973.891 422.654 971.973 425.954V425.954C965.758 436.649 957.912 446.308 948.72 454.585L918.374 481.908L854.437 504.944C852.871 506.067 851.014 506.714 849.09 506.806C847.165 506.899 845.255 506.433 843.589 505.466C841.923 504.498 840.572 503.07 839.698 501.353C838.825 499.636 838.466 497.702 838.666 495.786C838.865 493.87 839.614 492.052 840.822 490.551C842.031 489.05 843.647 487.931 845.476 487.327C847.306 486.723 849.271 486.661 851.135 487.148C852.999 487.635 854.683 488.65 855.984 490.071L855.984 490.071Z" fill="#9E616A"/>
<path d="M944.458 403.541C948.179 399.59 953.297 397.25 958.719 397.019C964.142 396.789 969.439 398.687 973.482 402.309C977.524 405.93 979.991 410.988 980.356 416.403C980.721 421.818 978.956 427.161 975.436 431.293L948.559 462.842L900.432 450.289L944.458 403.541Z" fill="#2F2E41"/>
<path d="M962.321 383.431C976.728 375.555 982.023 357.492 974.147 343.086C966.272 328.679 948.209 323.384 933.802 331.26C919.395 339.135 914.101 357.198 921.976 371.605C929.852 386.012 947.915 391.306 962.321 383.431Z" fill="#9E616A"/>
<path d="M943.091 321.228H962.295C974.885 321.228 985.091 332.709 985.091 346.873L984.202 381.228C970.598 382.92 957.293 386.479 944.661 391.803L942.868 384.149L939.333 394.23C936.188 395.753 933.07 397.419 929.979 399.228C933.587 382.276 935.072 365.365 932.595 352.228H926.091V345.109L923.883 352.228H912.091V352.228C912.091 348.157 912.892 344.125 914.45 340.364C916.008 336.603 918.292 333.186 921.17 330.307C924.049 327.429 927.466 325.145 931.227 323.587C934.988 322.029 939.02 321.228 943.091 321.228V321.228Z" fill="#2F2E41"/>
<path d="M1137 842.228H756C755.735 842.228 755.48 842.122 755.293 841.935C755.105 841.747 755 841.493 755 841.228C755 840.962 755.105 840.708 755.293 840.521C755.48 840.333 755.735 840.228 756 840.228H1137C1137.27 840.228 1137.52 840.333 1137.71 840.521C1137.89 840.708 1138 840.962 1138 841.228C1138 841.493 1137.89 841.747 1137.71 841.935C1137.52 842.122 1137.27 842.228 1137 842.228Z" fill="#CACACA"/>
<path d="M847.558 532.117C857.255 532.117 865.117 524.256 865.117 514.558C865.117 504.861 857.255 497 847.558 497C837.861 497 830 504.861 830 514.558C830 524.256 837.861 532.117 847.558 532.117Z" fill="#3F3D56"/>
<defs>
<clipPath id="clip0">
<rect width="768.183" height="692.308" fill="white" transform="translate(34 151)"/>
</clipPath>
</defs>
</svg>
