<svg id="Capa_1" enable-background="new 0 0 512 512" height="512" viewBox="0 0 512 512" width="512" xmlns="http://www.w3.org/2000/svg"><g><path d="m215.542 30c47.98 0 87.014 39.064 87.014 87.081h30c0-64.559-52.492-117.081-117.014-117.081s-117.015 52.522-117.015 117.081h30c0-48.017 39.035-87.081 87.015-87.081z"/><path d="m401.448 219.162c-17.084 0-30.934 13.849-30.934 30.934v-10.311c0-17.084-13.849-30.934-30.934-30.934-17.084 0-30.934 13.849-30.934 30.934 0-17.084-13.849-30.934-30.934-30.934-17.083 0-30.932 13.848-30.934 30.931v-131.981c0-17.084-13.849-30.934-30.934-30.934-17.084 0-30.934 13.849-30.934 30.934v202.314l-13.27-13.219c-25.633-25.46-67.604-24.552-91.998 2.075l-.025.028 138.289 137.966v75.035h187.664v-45l26.809-55.738v-161.167c.002-17.084-13.847-30.933-30.931-30.933z"/></g></svg>