<svg height="512pt" viewBox="0 0 512 512.00003" width="512pt" xmlns="http://www.w3.org/2000/svg"><path d="m60 226c0-8.289062-6.710938-15-15-15h-30c-8.289062 0-15 6.710938-15 15 0 8.292969 6.710938 15 15 15h30c8.289062 0 15-6.707031 15-15zm0 0"/><path d="m497 211h-30c-8.289062 0-15 6.710938-15 15 0 8.292969 6.710938 15 15 15h30c8.289062 0 15-6.707031 15-15 0-8.289062-6.710938-15-15-15zm0 0"/><path d="m81.640625 108.007812-25.988281-15c-7.175782-4.148437-16.347656-1.6875-20.492188 5.492188-4.144531 7.179688-1.683594 16.347656 5.492188 20.492188l25.988281 15c7.128906 4.117187 16.3125 1.71875 20.492187-5.492188 4.144532-7.179688 1.683594-16.347656-5.492187-20.492188zm0 0"/><path d="m471.347656 333.007812-25.988281-15c-7.191406-4.132812-16.359375-1.6875-20.492187 5.492188-4.144532 7.179688-1.683594 16.347656 5.492187 20.492188l25.988281 15c7.128906 4.117187 16.3125 1.71875 20.492188-5.492188 4.144531-7.179688 1.683594-16.347656-5.492188-20.492188zm0 0"/><path d="m138.007812 48.484375c4.175782 7.210937 13.363282 9.609375 20.492188 5.492187 7.179688-4.148437 9.640625-13.316406 5.492188-20.492187l-15-25.988281c-4.144532-7.160156-13.359376-9.625-20.492188-5.492188-7.179688 4.144532-9.640625 13.316406-5.492188 20.492188zm0 0"/><path d="m66.640625 318.007812-25.988281 15c-7.175782 4.144532-9.636719 13.3125-5.492188 20.492188 4.179688 7.214844 13.363282 9.613281 20.492188 5.492188l25.988281-15c7.175781-4.144532 9.636719-13.3125 5.492187-20.492188-4.160156-7.179688-13.375-9.625-20.492187-5.492188zm0 0"/><path d="m445.359375 133.992188 25.988281-15c7.175782-4.144532 9.636719-13.3125 5.492188-20.492188-4.160156-7.179688-13.375-9.640625-20.492188-5.492188l-25.988281 15c-7.175781 4.144532-9.636719 13.3125-5.492187 20.492188 4.179687 7.214844 13.363281 9.613281 20.492187 5.492188zm0 0"/><path d="m353.5 53.976562c7.128906 4.117188 16.316406 1.71875 20.492188-5.492187l15-25.988281c4.148437-7.175782 1.6875-16.347656-5.492188-20.492188-7.164062-4.128906-16.347656-1.667968-20.492188 5.492188l-15 25.988281c-4.148437 7.175781-1.6875 16.347656 5.492188 20.492187zm0 0"/><path d="m360.019531 97.914062c-38.746093-31.507812-89.515625-43.621093-139.367187-33.222656-64.757813 13.492188-115.851563 66.589844-127.132813 132.101563-9.449219 54.871093 8.644531 110.34375 48.382813 148.417969 21.140625 20.226562 33.992187 47.292968 37.539062 75.789062h61.558594v-70.457031l-56.660156-84.992188-28.945313-28.945312c-5.859375-5.859375-5.859375-15.351563 0-21.210938s15.351563-5.859375 21.210938 0l19.394531 19.394531 19.394531-19.394531c5.859375-5.859375 15.351563-5.859375 21.210938 0l19.394531 19.394531 19.394531-19.394531c5.859375-5.859375 15.351563-5.859375 21.210938 0l19.394531 19.394531 19.394531-19.394531c5.859375-5.859375 15.351563-5.859375 21.210938 0s5.859375 15.351563 0 21.210938l-28.945313 28.945312-56.660156 84.992188v70.457031h60.699219c1.75-26.949219 14.542969-53.34375 37.386719-74.839844 32.988281-31.066406 51.914062-74.867187 51.914062-120.160156 0-49.894531-22.222656-96.578125-60.980469-128.085938zm0 0"/><path d="m286 247.210938-19.394531 19.394531c-5.859375 5.859375-15.351563 5.859375-21.210938 0l-19.394531-19.394531-10.699219 10.699218 40.699219 61.050782 40.699219-61.050782zm0 0"/><path d="m181 467c0 24.8125 20.1875 45 45 45h60c24.8125 0 45-20.1875 45-45v-16h-150zm0 0"/></svg>