<svg width="1440" height="1024" viewBox="0 0 1440 1024" fill="none" xmlns="http://www.w3.org/2000/svg">
<g clip-path="url(#clip0)">
<g opacity="0.5" clip-path="url(#clip1)">
<g clip-path="url(#clip2)">
<path d="M739.001 393.31C739.001 428.48 747.331 457.43 761.781 482.23C766.551 490.399 771.964 498.173 777.971 505.48C831.091 570.45 929.851 606.01 1019.11 663.61C1282.59 833.63 1311.13 561.19 1299.23 393.31C1294.43 325.57 1268.05 263.52 1226.14 216.01C1217.34 206.018 1207.83 196.67 1197.69 188.04C1150.11 147.52 1088.64 123 1019.11 123C899.821 123 797.951 194.95 757.561 296.34C745.282 327.194 738.983 360.102 739.001 393.31V393.31Z" fill="#00BFA6"/>
<path d="M959.431 183.92L1226.14 216.01C1217.34 206.018 1207.83 196.67 1197.69 188.04L959.431 183.92Z" fill="#D0CDE1"/>
<path d="M761.781 482.23C766.55 490.399 771.964 498.173 777.971 505.48L1006.43 478L761.781 482.23Z" fill="#D0CDE1"/>
<path d="M748.241 324.22L1135.43 274L757.561 296.34C753.932 305.45 750.82 314.759 748.241 324.22V324.22Z" fill="#D0CDE1"/>
<path d="M1272.97 195.002C1272.97 195.692 1272.99 196.372 1273.05 197.042C1273.35 201.195 1274.57 205.228 1276.63 208.847C1278.69 212.467 1281.53 215.581 1284.95 217.964C1288.36 220.347 1292.26 221.939 1296.37 222.623C1300.48 223.307 1304.69 223.066 1308.69 221.918C1312.69 220.77 1316.39 218.744 1319.51 215.987C1322.63 213.23 1325.09 209.811 1326.73 205.981C1328.36 202.15 1329.12 198.004 1328.94 193.844C1328.77 189.683 1327.67 185.614 1325.73 181.932C1325.12 180.778 1324.44 179.672 1323.67 178.622C1320.32 173.978 1315.63 170.472 1310.22 168.578C1304.82 166.684 1298.97 166.493 1293.45 168.029C1287.93 169.566 1283.02 172.758 1279.38 177.173C1275.73 181.588 1273.53 187.016 1273.07 192.722C1273 193.472 1272.97 194.232 1272.97 195.002Z" fill="#00BFA6"/>
<path d="M1272.97 195.002C1272.97 195.692 1272.99 196.372 1273.05 197.042L1314.97 192.002L1273.07 192.722C1273 193.472 1272.97 194.232 1272.97 195.002Z" fill="#D0CDE1"/>
<path d="M1282.97 209.112L1321.75 213.782C1322.85 212.555 1323.84 211.233 1324.71 209.832L1282.97 209.112Z" fill="#D0CDE1"/>
<path d="M1293.97 178.112L1325.73 181.932C1325.12 180.778 1324.44 179.672 1323.67 178.622L1293.97 178.112Z" fill="#D0CDE1"/>
<path d="M889.234 699.128C889.557 699.737 889.894 700.329 890.261 700.892C892.475 704.418 895.448 707.406 898.963 709.639C902.478 711.871 906.446 713.291 910.58 713.795C914.713 714.299 918.906 713.875 922.855 712.554C926.804 711.233 930.408 709.048 933.405 706.157C936.402 703.267 938.717 699.745 940.181 695.847C941.645 691.949 942.221 687.773 941.867 683.624C941.513 679.476 940.238 675.458 938.135 671.864C936.032 668.271 933.154 665.191 929.711 662.85C928.638 662.113 927.511 661.459 926.339 660.892C921.205 658.36 915.417 657.463 909.756 658.322C904.095 659.182 898.835 661.757 894.683 665.7C890.532 669.643 887.69 674.764 886.54 680.373C885.39 685.982 885.988 691.809 888.253 697.067C888.543 697.762 888.873 698.448 889.234 699.128Z" fill="#00BFA6"/>
<path d="M889.234 699.128C889.557 699.737 889.894 700.329 890.261 700.892L924.927 676.789L888.253 697.067C888.543 697.762 888.873 698.448 889.234 699.128Z" fill="#D0CDE1"/>
<path d="M904.681 706.904L941.125 692.85C941.523 691.25 941.778 689.618 941.888 687.973L904.681 706.904Z" fill="#D0CDE1"/>
<path d="M899.866 674.364L929.711 662.85C928.638 662.113 927.511 661.459 926.339 660.892L899.866 674.364Z" fill="#D0CDE1"/>
<path d="M1243.62 446.181L1244.08 446.12L1242.95 450.426C1241.88 456.434 1240.32 462.346 1238.3 468.103L1205.07 594.411C1204.01 598.442 1201.8 602.076 1198.7 604.867C1195.6 607.658 1191.76 609.484 1187.64 610.121L1119.88 620.603C1115.5 621.281 1111.02 620.582 1107.05 618.602C1103.08 616.623 1099.83 613.46 1097.73 609.552L1033.34 489.275C1031.33 485.943 1029.49 482.509 1027.83 478.987L1025.65 474.903L1025.99 474.858C1019.16 458.711 1016.16 441.205 1017.21 423.705C1018.26 406.205 1023.34 389.184 1032.05 373.97C1040.76 358.755 1052.86 345.757 1067.42 335.99C1081.98 326.222 1098.6 319.949 1115.98 317.658C1133.36 315.368 1151.03 317.123 1167.62 322.786C1184.22 328.448 1199.28 337.867 1211.63 350.306C1223.98 362.745 1233.3 377.869 1238.85 394.499C1244.39 411.129 1246.03 428.816 1243.62 446.181H1243.62Z" fill="#3F3D56"/>
<path d="M1115.72 628.856C1116.92 628.856 1118.11 628.764 1119.29 628.581L1190.11 617.623C1194.61 616.928 1198.81 614.934 1202.19 611.887C1205.57 608.839 1207.99 604.87 1209.15 600.468L1243.88 468.442C1246 462.398 1247.63 456.192 1248.76 449.886L1249.64 444.11C1252 425.658 1250.04 406.909 1243.92 389.344C1237.79 371.778 1227.67 355.877 1214.34 342.895C1201.02 329.913 1184.86 320.206 1167.14 314.54C1149.42 308.874 1130.63 307.404 1112.24 310.247L1112.55 312.223C1130.73 309.421 1149.32 310.907 1166.83 316.564C1184.34 322.22 1200.28 331.889 1213.39 344.801C1226.49 357.712 1236.4 373.508 1242.32 390.928C1248.24 408.349 1250.01 426.912 1247.48 445.136L1246.81 449.456C1245.69 455.709 1244.07 461.863 1241.97 467.856L1207.21 599.959C1206.16 603.985 1203.95 607.614 1200.85 610.401C1197.76 613.188 1193.92 615.011 1189.81 615.647L1118.98 626.605C1114.61 627.277 1110.13 626.577 1106.17 624.6C1102.21 622.624 1098.96 619.469 1096.87 615.569L1095.1 616.512C1097.1 620.24 1100.08 623.357 1103.71 625.53C1107.34 627.703 1111.49 628.853 1115.72 628.856V628.856Z" fill="#D0CDE1"/>
<path d="M1097.76 474.89L1140.85 592.561L1138.42 593.45L1095.33 475.78L1097.76 474.89Z" fill="#D0CDE1"/>
<path d="M1168.12 464.002L1170.71 464.116L1165.21 589.309L1162.62 589.196L1168.12 464.002Z" fill="#D0CDE1"/>
<path d="M1121.71 688.711L1212.47 674.67C1213.14 674.562 1213.75 674.191 1214.15 673.638C1214.55 673.085 1214.72 672.396 1214.61 671.721C1214.51 671.045 1214.14 670.438 1213.59 670.033C1213.04 669.628 1212.35 669.457 1211.68 669.557L1120.92 683.598C1120.58 683.648 1120.26 683.764 1119.97 683.94C1119.67 684.116 1119.42 684.348 1119.22 684.622C1119.01 684.897 1118.87 685.209 1118.79 685.54C1118.71 685.871 1118.69 686.215 1118.74 686.552C1118.8 686.889 1118.91 687.212 1119.09 687.504C1119.27 687.795 1119.5 688.048 1119.78 688.248C1120.05 688.449 1120.37 688.593 1120.7 688.673C1121.03 688.752 1121.37 688.765 1121.71 688.711V688.711Z" fill="#3F3D56"/>
<path d="M1119.38 669.438L1210.14 655.397C1210.48 655.347 1210.8 655.231 1211.09 655.055C1211.39 654.879 1211.64 654.647 1211.84 654.373C1212.04 654.098 1212.19 653.786 1212.27 653.455C1212.35 653.124 1212.37 652.78 1212.32 652.443C1212.26 652.106 1212.15 651.783 1211.97 651.492C1211.79 651.2 1211.56 650.947 1211.28 650.747C1211.01 650.546 1210.69 650.402 1210.36 650.323C1210.03 650.243 1209.69 650.23 1209.35 650.284L1118.59 664.325C1118.25 664.375 1117.93 664.491 1117.64 664.667C1117.35 664.843 1117.09 665.075 1116.89 665.349C1116.69 665.624 1116.54 665.936 1116.46 666.267C1116.38 666.598 1116.36 666.942 1116.42 667.279C1116.47 667.616 1116.59 667.939 1116.76 668.231C1116.94 668.522 1117.17 668.775 1117.45 668.975C1117.73 669.176 1118.04 669.32 1118.37 669.4C1118.7 669.479 1119.05 669.492 1119.38 669.438V669.438Z" fill="#3F3D56"/>
<path d="M1117.06 650.165L1207.81 636.124C1208.49 636.016 1209.09 635.645 1209.49 635.092C1209.9 634.54 1210.06 633.85 1209.96 633.175C1209.85 632.499 1209.49 631.893 1208.94 631.487C1208.39 631.082 1207.7 630.911 1207.02 631.011L1116.26 645.052C1115.59 645.16 1114.99 645.531 1114.58 646.084C1114.18 646.637 1114.01 647.326 1114.12 648.002C1114.22 648.677 1114.59 649.284 1115.14 649.689C1115.69 650.094 1116.38 650.265 1117.06 650.165H1117.06Z" fill="#3F3D56"/>
<path d="M1169.91 699.926C1151.91 702.711 1135.76 694.935 1133.85 682.559L1199.04 672.474C1200.95 684.85 1187.91 697.141 1169.91 699.926Z" fill="#3F3D56"/>
<path d="M1137.29 450.099C1141.16 449.501 1144.36 446.44 1146.12 444.388C1146.69 443.716 1147.26 443.018 1147.82 442.319C1149.86 439.773 1151.79 437.368 1154.48 436.114C1160.42 433.344 1167.42 437.213 1173.47 441.364L1174.94 439.231C1168.28 434.665 1160.51 430.448 1153.39 433.769C1150.16 435.278 1147.94 438.034 1145.8 440.698C1145.26 441.377 1144.71 442.054 1144.15 442.706C1142.33 444.839 1138.69 448.295 1134.78 447.498C1133.14 447.018 1131.61 446.209 1130.29 445.118C1129.28 444.367 1128.22 443.696 1127.11 443.111C1124.85 442.03 1122.33 441.64 1119.85 441.99C1117.38 442.34 1115.06 443.413 1113.2 445.076C1112.53 445.706 1111.9 446.373 1111.31 447.072C1110.15 448.398 1109.05 449.65 1107.62 450.105C1105.5 450.781 1103.27 449.573 1100.9 448.296C1098.46 446.978 1095.94 445.615 1093.07 445.952C1092.98 445.963 1092.89 445.975 1092.79 445.99C1087.7 446.778 1085.35 452.413 1084.02 456.619L1086.49 457.398C1088.29 451.681 1090.49 448.838 1093.38 448.521C1095.43 448.28 1097.49 449.394 1099.67 450.572C1102.41 452.051 1105.24 453.579 1108.4 452.57C1110.52 451.898 1111.91 450.312 1113.26 448.778C1113.79 448.151 1114.35 447.552 1114.95 446.985C1116.43 445.684 1118.26 444.844 1120.22 444.567C1122.18 444.291 1124.17 444.59 1125.96 445.429C1126.95 445.955 1127.9 446.557 1128.79 447.23C1130.4 448.539 1132.26 449.494 1134.26 450.032C1135.26 450.235 1136.28 450.258 1137.29 450.099Z" fill="#D0CDE1"/>
</g>
</g>
<g opacity="0.4">
<path d="M918.721 356.31C918.721 391.48 906.187 420.43 884.444 445.23C877.268 453.399 869.122 461.173 860.083 468.48C780.153 533.45 631.549 569.01 497.239 626.61C100.781 796.63 57.8369 524.19 75.7428 356.31C82.9654 288.57 122.659 226.52 185.721 179.01C198.965 169.018 213.272 159.67 228.53 151.04C300.124 110.52 392.618 86 497.239 86C676.735 86 830.019 157.95 890.794 259.34C909.271 290.194 918.748 323.102 918.721 356.31V356.31Z" fill="#00BFA6"/>
<path d="M490.319 375L89 407.09C102.244 397.098 116.55 387.75 131.809 379.12L490.319 375Z" fill="#D0CDE1"/>
<path d="M884.444 445.23C877.268 453.399 869.122 461.173 860.083 468.48L516.319 441L884.444 445.23Z" fill="#D0CDE1"/>
<path d="M759.605 324.22L177 274L745.581 296.34C751.042 305.45 755.724 314.759 759.605 324.22V324.22Z" fill="#D0CDE1"/>
<path d="M692.667 662.128C692.18 662.737 691.674 663.329 691.121 663.892C687.79 667.418 683.316 670.406 678.027 672.639C672.738 674.871 666.767 676.291 660.548 676.795C654.329 677.299 648.018 676.875 642.077 675.554C636.135 674.233 630.712 672.048 626.202 669.157C621.692 666.267 618.209 662.745 616.007 658.847C613.804 654.949 612.937 650.773 613.47 646.624C614.002 642.476 615.921 638.458 619.085 634.864C622.249 631.271 626.579 628.191 631.761 625.85C633.375 625.113 635.071 624.459 636.834 623.892C644.56 621.36 653.269 620.463 661.787 621.322C670.304 622.182 678.22 624.757 684.467 628.7C690.713 632.643 694.99 637.764 696.72 643.373C698.45 648.982 697.55 654.809 694.142 660.067C693.706 660.762 693.21 661.448 692.667 662.128Z" fill="#00BFA6"/>
<path d="M692.666 662.128C692.18 662.737 691.673 663.329 691.121 663.892L638.959 639.789L694.142 660.067C693.706 660.762 693.21 661.448 692.666 662.128Z" fill="#D0CDE1"/>
<path d="M669.422 669.904L614.585 655.85C613.987 654.25 613.603 652.618 613.437 650.973L669.422 669.904Z" fill="#D0CDE1"/>
<path d="M676.668 637.364L631.76 625.85C633.374 625.113 635.07 624.459 636.833 623.892L676.668 637.364Z" fill="#D0CDE1"/>
<path d="M991.067 179.453C991.792 179.947 992.485 180.447 993.124 180.969C997.161 184.153 1000.08 187.896 1001.66 191.924C1003.25 195.953 1003.46 200.165 1002.29 204.255C1001.11 208.345 998.579 212.21 994.873 215.567C991.168 218.924 986.382 221.69 980.864 223.663C975.346 225.635 969.236 226.765 962.979 226.97C956.721 227.175 950.473 226.45 944.691 224.847C938.908 223.244 933.736 220.804 929.552 217.705C925.367 214.606 922.276 210.926 920.502 206.933C919.938 205.686 919.518 204.413 919.244 203.125C917.972 197.462 919.343 191.676 923.174 186.548C927.004 181.419 933.109 177.195 940.665 174.444C948.221 171.694 956.864 170.549 965.429 171.166C973.994 171.782 982.069 174.129 988.564 177.89C989.428 178.378 990.258 178.901 991.067 179.453Z" fill="#00BFA6"/>
<path d="M991.067 179.453C991.792 179.947 992.485 180.447 993.124 180.969L942.672 206.629L988.564 177.89C989.427 178.378 990.258 178.901 991.067 179.453Z" fill="#D0CDE1"/>
<path d="M995.119 196.536L958.25 226.955C955.775 226.845 953.32 226.591 950.912 226.194L995.119 196.536Z" fill="#D0CDE1"/>
<path d="M950.701 182.023L920.502 206.933C919.938 205.686 919.517 204.413 919.243 203.125L950.701 182.023Z" fill="#D0CDE1"/>
</g>
<path d="M434.992 487.644H205.992V262.03H207.992V485.644H434.992V487.644Z" fill="#3F3D56"/>
<path d="M284.492 188.105H282.779V141.167C282.779 137.599 282.076 134.066 280.711 130.77C279.345 127.474 277.344 124.48 274.822 121.957C272.299 119.434 269.304 117.433 266.008 116.068C262.712 114.703 259.179 114 255.612 114H156.167C152.599 114 149.066 114.703 145.77 116.068C142.474 117.433 139.48 119.434 136.957 121.957C134.434 124.48 132.433 127.474 131.068 130.77C129.703 134.066 129 137.599 129 141.167V398.674C129 402.242 129.703 405.774 131.068 409.07C132.433 412.366 134.434 415.361 136.957 417.884C139.48 420.407 142.474 422.408 145.77 423.773C149.066 425.138 152.599 425.841 156.167 425.841H255.612C259.18 425.841 262.712 425.138 266.008 423.773C269.304 422.408 272.299 420.407 274.822 417.884C277.344 415.361 279.345 412.366 280.711 409.07C282.076 405.774 282.779 402.242 282.779 398.674V221.517H284.492V188.105Z" fill="#3F3D56"/>
<path d="M276.993 142.763V399.895C276.994 405.276 274.858 410.437 271.054 414.242C267.249 418.048 262.089 420.186 256.709 420.187H156.783C151.402 420.186 146.242 418.048 142.438 414.242C138.634 410.437 136.498 405.276 136.499 399.895V142.763C136.499 137.384 138.636 132.224 142.44 128.421C146.244 124.617 151.404 122.479 156.783 122.479H168.907C168.31 123.942 168.082 125.53 168.244 127.102C168.405 128.674 168.951 130.182 169.833 131.494C170.715 132.805 171.905 133.88 173.3 134.623C174.695 135.366 176.251 135.755 177.832 135.754H234.803C236.384 135.755 237.94 135.366 239.335 134.623C240.729 133.88 241.92 132.805 242.802 131.494C243.684 130.182 244.229 128.674 244.391 127.102C244.552 125.53 244.325 123.942 243.728 122.479H256.709C262.088 122.479 267.247 124.617 271.051 128.421C274.855 132.225 276.993 137.384 276.993 142.763Z" fill="white"/>
<path d="M218.13 273.966H195.362C194.257 273.966 193.362 274.862 193.362 275.966V279.899C193.362 281.004 194.257 281.899 195.362 281.899H218.13C219.235 281.899 220.13 281.004 220.13 279.899V275.966C220.13 274.862 219.235 273.966 218.13 273.966Z" fill="#3F3D56"/>
<path d="M250.792 212.206H162.7C161.761 212.206 161 212.967 161 213.905C161 214.844 161.761 215.605 162.7 215.605H250.792C251.731 215.605 252.492 214.844 252.492 213.905C252.492 212.967 251.731 212.206 250.792 212.206Z" fill="#3F3D56"/>
<path d="M250.792 222.971H162.7C161.761 222.971 161 223.732 161 224.671C161 225.61 161.761 226.371 162.7 226.371H250.792C251.731 226.371 252.492 225.61 252.492 224.671C252.492 223.732 251.731 222.971 250.792 222.971Z" fill="#3F3D56"/>
<path d="M250.792 233.737H162.7C161.761 233.737 161 234.498 161 235.437C161 236.376 161.761 237.137 162.7 237.137H250.792C251.731 237.137 252.492 236.376 252.492 235.437C252.492 234.498 251.731 233.737 250.792 233.737Z" fill="#3F3D56"/>
<path d="M250.792 244.503H162.7C161.761 244.503 161 245.264 161 246.202C161 247.141 161.761 247.902 162.7 247.902H250.792C251.731 247.902 252.492 247.141 252.492 246.202C252.492 245.264 251.731 244.503 250.792 244.503Z" fill="#3F3D56"/>
<path d="M250.792 255.268H162.7C161.761 255.268 161 256.029 161 256.968C161 257.907 161.761 258.668 162.7 258.668H250.792C251.731 258.668 252.492 257.907 252.492 256.968C252.492 256.029 251.731 255.268 250.792 255.268Z" fill="#3F3D56"/>
<path d="M198.875 385.361C214.788 385.361 227.688 372.461 227.688 356.548C227.688 340.635 214.788 327.735 198.875 327.735C182.962 327.735 170.062 340.635 170.062 356.548C170.062 372.461 182.962 385.361 198.875 385.361Z" fill="#00BFA6"/>
<path d="M207.367 378.772C200.223 378.772 193.238 376.654 187.298 372.684C181.357 368.715 176.727 363.073 173.993 356.472C171.258 349.871 170.543 342.608 171.937 335.6C173.331 328.593 176.771 322.156 181.823 317.104C186.875 312.052 193.312 308.611 200.32 307.217C207.327 305.823 214.591 306.539 221.192 309.273C227.793 312.007 233.434 316.637 237.404 322.578C241.373 328.519 243.492 335.503 243.492 342.648C243.481 352.225 239.672 361.407 232.899 368.18C226.127 374.952 216.945 378.761 207.367 378.772V378.772ZM207.367 307.837C200.482 307.837 193.752 309.878 188.027 313.703C182.303 317.528 177.841 322.965 175.206 329.326C172.571 335.687 171.882 342.686 173.225 349.439C174.568 356.192 177.884 362.394 182.752 367.263C187.621 372.131 193.823 375.447 200.576 376.79C207.329 378.133 214.328 377.444 220.689 374.809C227.05 372.174 232.487 367.712 236.312 361.988C240.137 356.263 242.178 349.533 242.178 342.648C242.168 333.418 238.497 324.57 231.971 318.044C225.445 311.518 216.597 307.847 207.367 307.837Z" fill="#3F3D56"/>
<path d="M991.758 407.918H328.419V686.467H991.758V407.918Z" fill="white"/>
<path d="M1011.58 360H308V389.89H1011.58V360Z" fill="#05AA9E"/>
<path d="M330.212 383.116C333.272 383.116 335.752 380.636 335.752 377.576C335.752 374.516 333.272 372.036 330.212 372.036C327.152 372.036 324.672 374.516 324.672 377.576C324.672 380.636 327.152 383.116 330.212 383.116Z" fill="white"/>
<path d="M351.24 383.116C354.3 383.116 356.78 380.636 356.78 377.576C356.78 374.516 354.3 372.036 351.24 372.036C348.181 372.036 345.7 374.516 345.7 377.576C345.7 380.636 348.181 383.116 351.24 383.116Z" fill="white"/>
<path d="M372.269 383.116C375.329 383.116 377.809 380.636 377.809 377.576C377.809 374.516 375.329 372.036 372.269 372.036C369.209 372.036 366.729 374.516 366.729 377.576C366.729 380.636 369.209 383.116 372.269 383.116Z" fill="white"/>
<path d="M804.078 450.268H710.655V457.29H804.078V450.268Z" fill="#E6E6E6"/>
<path d="M854.92 470.882H710.655V477.904H854.92V470.882Z" fill="#05AA9E"/>
<path d="M829.728 490.514H712.155V497.536H829.728V490.514Z" fill="#E6E6E6"/>
<path d="M779.292 512.055H710.655V519.076H779.292V512.055Z" fill="#E6E6E6"/>
<path d="M814.246 533.095H710.655V540.117H814.246V533.095Z" fill="#05AA9E"/>
<path d="M679.514 448.059H668.074V459.498H679.514V448.059Z" fill="#E6E6E6"/>
<path d="M679.514 468.673H668.074V480.112H679.514V468.673Z" fill="#05AA9E"/>
<path d="M679.514 488.305H668.074V499.744H679.514V488.305Z" fill="#E6E6E6"/>
<path d="M679.514 509.846H668.074V521.285H679.514V509.846Z" fill="#E6E6E6"/>
<path d="M679.514 530.887H668.074V542.326H679.514V530.887Z" fill="#05AA9E"/>
<path d="M804.078 554.268H710.655V561.29H804.078V554.268Z" fill="#E6E6E6"/>
<path d="M854.92 574.882H710.655V581.904H854.92V574.882Z" fill="#05AA9E"/>
<path d="M829.728 594.514H712.155V601.536H829.728V594.514Z" fill="#E6E6E6"/>
<path d="M779.292 616.055H710.655V623.076H779.292V616.055Z" fill="#E6E6E6"/>
<path d="M814.246 637.095H710.655V644.117H814.246V637.095Z" fill="#E6E6E6"/>
<path d="M679.514 552.059H668.074V563.498H679.514V552.059Z" fill="#E6E6E6"/>
<path d="M679.514 572.673H668.074V584.112H679.514V572.673Z" fill="#05AA9E"/>
<path d="M679.514 592.305H668.074V603.744H679.514V592.305Z" fill="#E6E6E6"/>
<path d="M679.514 613.846H668.074V625.285H679.514V613.846Z" fill="#E6E6E6"/>
<path d="M679.514 634.887H668.074V646.326H679.514V634.887Z" fill="#E6E6E6"/>
<path d="M508.535 609.347H415.112V616.369H508.535V609.347Z" fill="#3F3D56"/>
<path d="M520.186 627.593H402.612V634.615H520.186V627.593Z" fill="#3F3D56"/>
<path d="M461.855 517.808C471.013 517.808 478.438 510.384 478.438 501.226C478.438 492.068 471.013 484.643 461.855 484.643C452.697 484.643 445.272 492.068 445.272 501.226C445.272 510.384 452.697 517.808 461.855 517.808Z" fill="white"/>
<path d="M598.143 570.099H367.721C367.53 570.099 367.346 570.023 367.211 569.888C367.076 569.753 367 569.57 367 569.378V458.937C367 458.746 367.076 458.563 367.211 458.427C367.346 458.292 367.53 458.216 367.721 458.216C367.912 458.216 368.096 458.292 368.231 458.427C368.366 458.563 368.442 458.746 368.442 458.937V568.657H598.143C598.334 568.658 598.516 568.734 598.651 568.869C598.786 569.005 598.861 569.188 598.861 569.378C598.861 569.569 598.786 569.752 598.651 569.887C598.516 570.022 598.334 570.099 598.143 570.099V570.099Z" fill="#3F3D56"/>
<path d="M416.952 562.167H395.994C395.427 562.167 394.883 561.941 394.481 561.54C394.08 561.138 393.854 560.594 393.854 560.027V531.136C393.854 530.569 394.08 530.025 394.481 529.624C394.883 529.222 395.427 528.997 395.994 528.996H416.952C417.519 528.997 418.063 529.222 418.465 529.624C418.866 530.025 419.092 530.569 419.093 531.136V560.027C419.092 560.594 418.866 561.138 418.465 561.54C418.063 561.941 417.519 562.167 416.952 562.167Z" fill="#00BFA6"/>
<path d="M455.171 562.167H434.213C433.646 562.167 433.102 561.941 432.701 561.54C432.299 561.138 432.073 560.594 432.073 560.027V503.734C432.073 503.167 432.299 502.622 432.701 502.221C433.102 501.82 433.646 501.594 434.213 501.594H455.171C455.739 501.594 456.283 501.82 456.684 502.221C457.085 502.622 457.311 503.167 457.312 503.734V560.027C457.311 560.594 457.085 561.138 456.684 561.54C456.283 561.941 455.739 562.167 455.171 562.167V562.167Z" fill="#00BFA6"/>
<path d="M493.39 562.167H472.433C471.865 562.167 471.321 561.941 470.92 561.54C470.518 561.138 470.293 560.594 470.292 560.027V531.136C470.293 530.569 470.518 530.025 470.92 529.624C471.321 529.222 471.865 528.997 472.433 528.996H493.39C493.958 528.997 494.502 529.222 494.903 529.624C495.305 530.025 495.53 530.569 495.531 531.136V560.027C495.53 560.594 495.305 561.138 494.903 561.54C494.502 561.941 493.958 562.167 493.39 562.167V562.167Z" fill="#00BFA6"/>
<path d="M531.609 562.167H510.651C510.097 562.179 509.56 561.971 509.159 561.588C508.758 561.205 508.525 560.678 508.511 560.124V492.82C508.525 492.266 508.758 491.739 509.159 491.356C509.56 490.973 510.097 490.765 510.651 490.777H531.609C532.164 490.765 532.7 490.973 533.102 491.356C533.503 491.739 533.736 492.266 533.75 492.82V560.124C533.736 560.678 533.503 561.205 533.102 561.588C532.7 561.971 532.164 562.179 531.609 562.167V562.167Z" fill="#00BFA6"/>
<path d="M569.828 562.167H548.871C548.303 562.167 547.759 561.941 547.358 561.54C546.956 561.138 546.731 560.594 546.73 560.027V473.447C546.731 472.88 546.956 472.336 547.358 471.934C547.759 471.533 548.303 471.307 548.871 471.307H569.828C570.396 471.307 570.94 471.533 571.341 471.934C571.743 472.336 571.968 472.88 571.969 473.447V560.027C571.968 560.594 571.743 561.138 571.341 561.54C570.94 561.941 570.396 562.167 569.828 562.167V562.167Z" fill="#00BFA6"/>
<path d="M406.473 520.343C408.863 520.343 410.8 518.405 410.8 516.016C410.8 513.626 408.863 511.689 406.473 511.689C404.084 511.689 402.146 513.626 402.146 516.016C402.146 518.405 404.084 520.343 406.473 520.343Z" fill="#3F3D56"/>
<path d="M444.692 492.219C447.082 492.219 449.019 490.282 449.019 487.892C449.019 485.503 447.082 483.566 444.692 483.566C442.303 483.566 440.366 485.503 440.366 487.892C440.366 490.282 442.303 492.219 444.692 492.219Z" fill="#3F3D56"/>
<path d="M482.911 520.343C485.301 520.343 487.238 518.405 487.238 516.016C487.238 513.626 485.301 511.689 482.911 511.689C480.522 511.689 478.584 513.626 478.584 516.016C478.584 518.405 480.522 520.343 482.911 520.343Z" fill="#3F3D56"/>
<path d="M521.13 478.518C523.52 478.518 525.457 476.581 525.457 474.191C525.457 471.802 523.52 469.865 521.13 469.865C518.741 469.865 516.804 471.802 516.804 474.191C516.804 476.581 518.741 478.518 521.13 478.518Z" fill="#3F3D56"/>
<path d="M559.35 462.653C561.739 462.653 563.676 460.716 563.676 458.327C563.676 455.937 561.739 454 559.35 454C556.96 454 555.023 455.937 555.023 458.327C555.023 460.716 556.96 462.653 559.35 462.653Z" fill="#3F3D56"/>
<path d="M483.002 516.985L444.692 488.291L406.905 516.593L406.04 515.439L444.692 486.488L482.82 515.047L520.708 473.584L520.861 473.522L559.08 458.123L559.619 459.461L521.552 474.799L483.002 516.985Z" fill="#3F3D56"/>
<path d="M148.247 900.984C151.929 902.278 155.883 902.603 159.727 901.925C163.571 901.248 167.176 899.593 170.194 897.118C177.881 890.666 180.294 880.037 182.252 870.194L188.052 841.082L175.909 849.444C167.176 855.457 158.247 861.663 152.2 870.373C146.153 879.083 143.514 890.973 148.372 900.397" fill="#E6E6E6"/>
<path d="M149.286 936.23C148.057 927.277 146.793 918.21 147.655 909.161C148.421 901.125 150.872 893.276 155.864 886.84C158.513 883.43 161.737 880.509 165.391 878.207C166.344 877.607 167.22 879.116 166.272 879.714C159.951 883.709 155.061 889.608 152.309 896.561C149.269 904.293 148.781 912.722 149.309 920.935C149.626 925.902 150.297 930.835 150.974 935.765C151.028 935.988 150.995 936.223 150.882 936.423C150.769 936.623 150.583 936.771 150.364 936.839C150.14 936.899 149.902 936.869 149.701 936.755C149.5 936.64 149.352 936.452 149.29 936.229L149.286 936.23Z" fill="#F2F2F2"/>
<path d="M972.324 889.593C968.401 890.972 964.188 891.317 960.093 890.596C955.997 889.874 952.157 888.11 948.941 885.474C940.751 878.599 938.183 867.278 936.094 856.792L929.915 825.775L942.852 834.684C952.157 841.09 961.671 847.702 968.112 856.982C974.554 866.261 977.365 878.929 972.19 888.97" fill="#E6E6E6"/>
<path d="M970.326 929.303C971.955 917.44 973.63 905.422 972.485 893.432C971.47 882.782 968.221 872.383 961.607 863.852C958.096 859.334 953.823 855.462 948.982 852.412C947.72 851.615 946.558 853.615 947.815 854.409C956.192 859.703 962.671 867.52 966.319 876.734C970.348 886.98 970.995 898.15 970.301 909.035C969.881 915.617 968.99 922.156 968.095 928.687C968.024 928.983 968.068 929.294 968.218 929.558C968.368 929.822 968.613 930.019 968.903 930.11C969.198 930.189 969.514 930.149 969.78 929.998C970.046 929.847 970.242 929.597 970.325 929.302L970.326 929.303Z" fill="#F2F2F2"/>
<path d="M958.605 910.267C956.923 912.825 954.61 914.906 951.89 916.31C949.17 917.715 946.133 918.395 943.074 918.285C935.209 917.912 928.656 912.426 922.757 907.215L905.305 891.806L916.855 891.253C925.161 890.856 933.681 890.482 941.593 893.047C949.504 895.611 956.8 901.773 958.247 909.962" fill="#E6E6E6"/>
<path d="M974.929 936.123C967.089 922.252 957.997 906.835 941.748 901.907C937.231 900.542 932.494 900.053 927.793 900.466C926.311 900.594 926.681 902.878 928.16 902.751C936.04 902.097 943.906 904.177 950.432 908.643C956.712 912.918 961.601 918.861 965.739 925.162C968.274 929.023 970.545 933.047 972.816 937.065C973.541 938.35 975.663 937.422 974.929 936.123Z" fill="#F2F2F2"/>
<path d="M752.401 768.283H359.401V684.283H752.401V768.283Z" fill="white"/>
<path d="M459.607 712.057C458.664 712.057 457.759 712.432 457.092 713.099C456.425 713.766 456.051 714.671 456.051 715.614C456.051 716.557 456.425 717.462 457.092 718.129C457.759 718.795 458.664 719.17 459.607 719.17H719.267C720.208 719.168 721.111 718.792 721.776 718.126C722.441 717.459 722.815 716.555 722.815 715.614C722.815 714.672 722.441 713.769 721.776 713.102C721.111 712.435 720.208 712.06 719.267 712.057H459.607Z" fill="#05AA9E"/>
<path d="M459.607 733.396C458.664 733.394 457.759 733.767 457.09 734.432C456.422 735.098 456.045 736.001 456.043 736.945C456.041 737.888 456.414 738.793 457.08 739.462C457.745 740.13 458.649 740.507 459.592 740.509H623.752C624.219 740.509 624.682 740.418 625.115 740.24C625.547 740.061 625.939 739.799 626.27 739.469C626.601 739.139 626.864 738.746 627.043 738.315C627.222 737.883 627.314 737.42 627.314 736.952C627.314 736.485 627.222 736.022 627.043 735.59C626.864 735.158 626.601 734.766 626.27 734.435C625.939 734.105 625.547 733.843 625.115 733.665C624.682 733.486 624.219 733.395 623.752 733.396H459.607Z" fill="#05AA9E"/>
<path d="M752.401 768.283H359.401V684.283H752.401V768.283ZM365.401 762.283H746.401V690.283H365.401V762.283Z" fill="#CCCCCC"/>
<path d="M863.073 747.418C862.692 746.295 862.561 745.102 862.691 743.922C862.82 742.743 863.206 741.607 863.822 740.593C864.439 739.58 865.269 738.713 866.257 738.056C867.244 737.398 868.363 736.964 869.536 736.786L873.984 718.786L885.582 718.821L878.943 744.153C879.112 746.143 878.545 748.126 877.35 749.726C876.155 751.326 874.415 752.432 872.458 752.834C870.502 753.237 868.467 752.907 866.737 751.909C865.007 750.911 863.704 749.313 863.073 747.418V747.418Z" fill="#FFB7B7"/>
<path d="M882.655 735.77L864.892 734.539L873.495 683.271L868.02 626.82L885.976 619.458L897.95 682.147L897.918 682.261L882.655 735.77Z" fill="#3F3D56"/>
<path d="M745.308 729.761C745.287 728.575 745.527 727.399 746.01 726.315C746.493 725.232 747.208 724.268 748.104 723.491C749 722.713 750.056 722.142 751.196 721.817C752.337 721.492 753.535 721.42 754.706 721.608L764.436 705.825L775.47 709.398L761.417 731.495C760.971 733.441 759.826 735.157 758.199 736.316C756.573 737.475 754.578 737.997 752.592 737.783C750.607 737.569 748.768 736.635 747.426 735.156C746.083 733.678 745.33 731.758 745.308 729.761V729.761Z" fill="#FFB7B7"/>
<path d="M800.086 927.119H790.637L786.142 890.672L800.088 890.673L800.086 927.119Z" fill="#FFB7B7"/>
<path d="M802.496 936.279L772.028 936.278V935.892C772.028 932.747 773.278 929.731 775.501 927.507C777.725 925.283 780.742 924.034 783.887 924.034H783.888L802.496 924.034L802.496 936.279Z" fill="#2F2E41"/>
<path d="M866.006 927.119H856.557L852.062 890.672L866.008 890.673L866.006 927.119Z" fill="#FFB7B7"/>
<path d="M868.416 936.279L837.948 936.278V935.892C837.948 932.747 839.198 929.731 841.422 927.507C843.646 925.283 846.662 924.034 849.807 924.034H849.808L868.417 924.034L868.416 936.279Z" fill="#2F2E41"/>
<path d="M857.02 584.868C869.418 584.868 879.468 574.818 879.468 562.42C879.468 550.022 869.418 539.972 857.02 539.972C844.622 539.972 834.572 550.022 834.572 562.42C834.572 574.818 844.622 584.868 857.02 584.868Z" fill="#FFB8B8"/>
<path d="M849.438 561.189C846.084 562.592 842.328 562.696 838.901 561.481C835.474 560.266 832.623 557.818 830.902 554.615C829.181 551.412 828.715 547.683 829.593 544.155C830.472 540.627 832.632 537.552 835.654 535.53C841.629 531.532 850.552 532.855 856.344 537.492C860.249 535.716 864.618 535.228 868.819 536.1C873.02 536.972 876.834 539.158 879.71 542.341C885.301 548.81 885.913 559.077 881.838 566.617C880.056 570.548 879.265 574.856 879.535 579.164C879.805 583.471 881.127 587.647 883.386 591.325C881.632 591.253 877.773 590.929 872.945 590.512C871.548 590.392 870.943 586.287 869.411 586.155C868.06 586.039 865.793 589.896 864.377 589.776C853.89 588.89 842.15 587.99 836.83 588.166C840.839 578.78 844.848 569.395 849.438 561.189Z" fill="#2F2E41"/>
<path d="M874.235 720.565C874.235 720.565 881.531 728.087 877.076 766.927L873.999 849.401L868.553 922.428L851.034 921.263L835.645 753.182L814.101 814.688L802.5 916.37L785.691 915.206L782.82 814.088L790.189 735.942L874.235 720.565Z" fill="#2F2E41"/>
<path d="M802.028 740.646C793.064 740.647 789.454 739.569 789.19 739.486L788.774 739.355L788.847 738.925C788.907 738.572 794.929 703.461 803.192 685.027L809.003 610.272C809.169 608.051 810.083 605.952 811.595 604.317C813.107 602.681 815.129 601.606 817.33 601.267L817.408 601.761L817.33 601.267L832.11 598.946L841.151 590.985L862.809 592.183L864.719 601.345C867.309 602.069 884.403 607.308 886.095 619.853L886.116 620.01L886.043 620.15L854.727 680.394C857.373 683.006 878.287 704.49 879.707 731.955L879.741 732.616L879.096 732.468C879.036 732.456 872.343 731.184 837.149 737.134C820.872 739.885 809.56 740.646 802.028 740.646Z" fill="#3F3D56"/>
<path d="M767.311 729.397L754.546 719.567L783.036 662.566L809.534 606.7C809.904 605.919 810.505 605.27 811.254 604.841C812.004 604.411 812.867 604.221 813.727 604.296C814.588 604.371 815.405 604.708 816.069 605.261C816.733 605.814 817.212 606.556 817.441 607.389L824 631.183L803.49 684.546L767.311 729.397Z" fill="#3F3D56"/>
<path d="M1020 938.015H639C638.735 938.015 638.48 937.91 638.293 937.722C638.105 937.535 638 937.28 638 937.015C638 936.75 638.105 936.496 638.293 936.308C638.48 936.121 638.735 936.015 639 936.015H1020C1020.27 936.015 1020.52 936.121 1020.71 936.308C1020.89 936.496 1021 936.75 1021 937.015C1021 937.28 1020.89 937.535 1020.71 937.722C1020.52 937.91 1020.27 938.015 1020 938.015Z" fill="#CBCBCB"/>
<path d="M714 795H660V741H687V743H662V793H712V768H714V795Z" fill="#3F3D56"/>
<path d="M685.118 786.046L672 770.983L674.262 769.013L685.144 781.508L715.011 748L717.25 749.996L685.118 786.046Z" fill="#05AA9E"/>
<path d="M245.702 577.255L246.965 570.942C246.965 570.942 265.535 564.63 267.612 577.255H245.702Z" fill="#E6E6E6"/>
<path d="M281.342 924.837H293.516L299.308 877.879H281.34L281.342 924.837Z" fill="#9F616A"/>
<path d="M278.236 920.863L302.212 920.862H302.213C306.265 920.862 310.151 922.472 313.017 925.337C315.882 928.202 317.492 932.088 317.492 936.141V936.637L278.237 936.639L278.236 920.863Z" fill="#2F2E41"/>
<path d="M222.654 924.837H234.828L240.62 877.879H222.652L222.654 924.837Z" fill="#9F616A"/>
<path d="M219.548 920.863L243.524 920.862H243.525C247.577 920.862 251.463 922.472 254.329 925.337C257.194 928.202 258.804 932.088 258.804 936.141V936.637L219.549 936.639L219.548 920.863Z" fill="#2F2E41"/>
<path d="M228.027 603.768L214.139 602.505L205.302 644.168L206.564 682.044L220.452 732.545L239.39 721.182L229.29 669.419L228.027 603.768Z" fill="#3F3D56"/>
<path d="M219.237 728.126L222.346 754.639L225.265 816.503L218.558 908.691L242.546 907.404L254.303 811.452L261.484 767.264L271.584 817.765L277.897 912.454L302.516 910.481V817.432L303.147 749.589L294.31 723.076L219.237 728.126Z" fill="#2F2E41"/>
<path d="M270.953 578.518C270.953 578.518 262.115 565.892 245.703 574.73L238.127 584.83L214.139 602.505L219.19 661.844L212.877 736.333L302.516 735.07L287.366 660.581V581.043L270.953 578.518Z" fill="#3F3D56"/>
<path opacity="0.25" d="M222.346 623.461L215.107 710.016L224.24 663.106L222.346 623.461Z" fill="black"/>
<path d="M373.028 696.033C371.739 696.471 370.37 696.621 369.017 696.472C367.663 696.323 366.359 695.88 365.196 695.173C364.033 694.466 363.039 693.512 362.284 692.38C361.529 691.247 361.032 689.962 360.827 688.616L340.17 683.511L340.211 670.201L369.281 677.821C371.565 677.626 373.84 678.277 375.677 679.648C377.513 681.02 378.782 683.017 379.244 685.262C379.706 687.507 379.328 689.844 378.183 691.829C377.037 693.814 375.203 695.31 373.028 696.033H373.028Z" fill="#9F616A"/>
<path d="M351.427 670.042L347.953 689.942L356.659 691.461L360.133 671.562L351.427 670.042Z" fill="#E6E6E6"/>
<path d="M256.903 563.934C270.905 563.934 282.255 552.584 282.255 538.582C282.255 524.58 270.905 513.229 256.903 513.229C242.901 513.229 231.55 524.58 231.55 538.582C231.55 552.584 242.901 563.934 256.903 563.934Z" fill="#9F616A"/>
<path d="M258.796 560.946C252.594 562.435 246.059 561.566 240.461 558.507C234.864 555.448 230.603 550.418 228.506 544.394C226.409 538.37 226.625 531.781 229.114 525.908C231.602 520.034 236.185 515.295 241.971 512.611C246.427 510.622 251.301 509.748 256.17 510.063C263.753 510.461 271.122 513.264 278.712 513.057L279.812 514.826L283.958 513.82L284.847 517.112L285.939 517.074C287.895 520.709 284.747 525.914 280.619 525.87C278.996 525.683 277.396 525.334 275.842 524.829C274.243 524.487 272.361 524.572 271.259 525.779C269.827 527.348 270.451 529.795 270.749 531.898C271.048 534.001 270.302 536.834 268.179 536.903C267.095 536.938 266.063 536.16 264.998 536.365C263.756 536.603 263.129 538.102 263.31 539.352C263.617 540.58 264.119 541.75 264.795 542.819C266.23 545.949 266.459 549.499 265.436 552.787C264.414 556.075 262.213 558.869 259.255 560.634" fill="#2F2E41"/>
<path d="M281.34 585.921L287.366 581.043C287.366 581.043 299.527 580.197 299.308 593.09L318.767 653.961L356.099 667.186L351.069 693.176L298.25 673.055L271.421 628.586L281.34 585.921Z" fill="#3F3D56"/>
<path d="M452 938.015H71C70.7348 938.015 70.4804 937.91 70.2929 937.722C70.1054 937.535 70 937.28 70 937.015C70 936.75 70.1054 936.496 70.2929 936.308C70.4804 936.121 70.7348 936.015 71 936.015H452C452.265 936.015 452.52 936.121 452.707 936.308C452.895 936.496 453 936.75 453 937.015C453 937.28 452.895 937.535 452.707 937.722C452.52 937.91 452.265 938.015 452 938.015Z" fill="#CBCBCB"/>
<path d="M401.489 741C401.5 741 401.511 741 401.521 740.999C407.007 740.713 412.178 738.354 415.982 734.403C419.786 730.451 421.937 725.203 421.999 719.727C422.06 714.25 420.027 708.955 416.313 704.92C412.599 700.884 407.483 698.41 402.005 698.002C401.937 697.996 401.869 698.005 401.805 698.027C401.741 698.049 401.682 698.084 401.632 698.13C401.582 698.176 401.542 698.231 401.515 698.292C401.487 698.353 401.473 698.419 401.472 698.487L401 740.502C400.999 740.633 401.05 740.759 401.141 740.852C401.233 740.945 401.358 740.999 401.489 741V741Z" fill="#3F3D56"/>
<path d="M385.172 705C385.347 705.002 385.515 705.07 385.639 705.189L400.811 719.916C400.872 719.975 400.92 720.044 400.953 720.121C400.985 720.198 401.001 720.28 401 720.362L400.763 740.377C400.763 740.463 400.743 740.548 400.707 740.627C400.67 740.705 400.616 740.775 400.549 740.833C400.482 740.892 400.403 740.937 400.317 740.965C400.231 740.993 400.139 741.005 400.049 740.998C395.83 740.699 391.783 739.288 388.363 736.926C384.942 734.564 382.283 731.343 380.685 727.625C379.087 723.908 378.613 719.841 379.316 715.882C380.02 711.923 381.872 708.228 384.666 705.214C384.727 705.149 384.8 705.096 384.883 705.059C384.966 705.023 385.056 705.003 385.147 705C385.155 705 385.163 705 385.172 705Z" fill="#E6E6E6"/>
<path d="M400.377 698C400.537 698.002 400.691 698.064 400.807 698.173C400.869 698.232 400.918 698.302 400.952 698.38C400.985 698.458 401.001 698.542 401 698.626L400.798 716.389C400.796 716.511 400.758 716.63 400.688 716.731C400.618 716.832 400.519 716.91 400.404 716.956C400.289 717.001 400.162 717.012 400.041 716.987C399.92 716.962 399.808 716.901 399.722 716.814L387.179 704.175C387.121 704.116 387.076 704.048 387.045 703.972C387.014 703.896 386.999 703.816 387 703.734C387.001 703.653 387.018 703.572 387.051 703.498C387.083 703.423 387.13 703.355 387.19 703.298C387.197 703.291 387.205 703.284 387.213 703.277C390.861 700.113 395.485 698.254 400.338 698.001C400.351 698 400.364 698 400.377 698Z" fill="#00BFA6"/>
</g>
<defs>
<clipPath id="clip0">
<rect width="1440" height="1024" fill="white"/>
</clipPath>
<clipPath id="clip1">
<rect width="951" height="693" fill="white" transform="matrix(-1 0 0 1 1696 123)"/>
</clipPath>
<clipPath id="clip2">
<rect width="1013.03" height="844.995" fill="white" transform="matrix(-1 0 0 1 1696 123)"/>
</clipPath>
</defs>
</svg>
